<svg width="170" height="154" viewBox="0 0 170 154" fill="none" xmlns="http://www.w3.org/2000/svg">
<path fill-rule="evenodd" clip-rule="evenodd" d="M95.8089 0.65296C76.9735 3.3811 69.0179 22.4632 54.2604 33.4356C36.1445 46.9051 6.00087 50.3977 0.975433 71.1631C-4.34209 93.1354 12.9935 114.554 30.8565 130.142C48.3538 145.412 71.5688 154.975 95.8089 153.921C119.066 152.91 140.13 141.152 154.827 124.753C168.153 109.883 170.281 90.3331 169.973 71.1631C169.67 52.3668 167.426 32.7097 153.128 19.1155C138.572 5.27663 116.621 -2.36145 95.8089 0.65296Z" fill="white"/>
<path d="M146.427 83.874C145.308 83.378 143.645 83.1989 142.32 83.43C141.561 83.5676 140.261 84.0593 139.367 84.5594C139.202 84.6518 139.075 84.6976 139.059 84.6685C138.985 84.5374 139.025 84.1069 139.134 83.7779C139.261 83.4007 139.647 82.8594 140.023 82.5279C140.179 82.3961 140.251 82.2856 140.253 82.1758C140.266 82.0282 140.248 82.0066 140.02 81.8727C139.507 81.5727 138.413 81.5215 137.528 81.7621C135.065 82.4326 133.387 84.1878 133.075 86.4225C132.989 87.0321 133.049 88.006 133.214 88.6088C133.402 89.3078 133.939 90.257 134.438 90.7945C134.865 91.2505 135.659 91.814 136.228 92.0566C137.404 92.5724 138.757 92.6315 140.016 92.2264C140.667 92.0216 141.058 91.809 141.728 91.3069C142.775 90.523 143.508 89.5768 144.202 88.1042C145.273 85.8341 145.577 85.3639 146.317 84.8161C147.025 84.2922 147.045 84.1467 146.427 83.874ZM138.627 87.5891C138.551 87.6699 138.352 87.9981 138.187 88.3198C137.79 89.1033 137.561 89.4354 137.213 89.7581C136.484 90.4275 135.48 90.5366 134.714 90.0341C134.377 89.8081 134.023 89.1767 134.007 88.7713C133.998 88.3556 134.138 87.9005 134.386 87.5575C134.581 87.2893 134.66 87.2258 135.095 86.9887C135.411 86.812 135.653 86.7086 135.779 86.6952L135.98 86.6784L135.867 86.9328C135.741 87.2078 135.732 87.6144 135.846 87.8184C135.928 87.9641 136.116 88.0375 136.237 87.9696C136.73 87.6999 137.506 87.3996 137.804 87.3608C138.205 87.3147 138.699 87.3316 138.735 87.3947C138.748 87.419 138.703 87.5083 138.627 87.5891Z" fill="#D36637"/>
<path d="M55.4088 68.9851C54.9899 68.8718 54.1523 68.777 53.8046 68.4793C52.3796 67.2571 53.5175 66.7224 54.2445 66.0929C58.3511 62.5223 62.8037 59.3704 67.5361 56.6839C72.027 54.1319 76.7468 52.0057 81.6338 50.3331C83.9281 49.5429 87.0653 48.102 89.5361 48.4708C90.3133 48.5967 91.077 48.7951 91.8172 49.0635C91.7856 49.1003 91.8172 49.1662 91.8672 49.1398C91.1265 49.5705 90.441 50.0897 89.8258 50.6861H89.7283C89.7018 50.6867 89.6757 50.6935 89.6523 50.7061C89.6289 50.7187 89.6088 50.7366 89.5937 50.7585C89.5785 50.7803 89.5688 50.8054 89.5651 50.8317C89.5615 50.858 89.5642 50.8848 89.5729 50.9099C89.2384 51.2129 88.9039 51.5105 88.5746 51.7818L88.3454 51.795C88.2401 51.795 88.2243 51.9478 88.2901 52.0084L88.1663 52.1032C86.7492 53.1568 85.2688 54.1235 83.7674 55.056C80.9779 56.7919 78.1225 58.4171 75.3804 60.232C69.7567 63.954 64.4068 67.8103 57.819 69.5514C57.0182 69.3802 56.2069 69.2011 55.4088 68.9851Z" fill="#58595B"/>
<path d="M119.249 80.778C118.754 82.1715 118.168 83.531 117.494 84.8477C117.472 84.8464 117.45 84.8464 117.428 84.8477C117.4 84.8526 117.374 84.8654 117.353 84.8844C117.332 84.9035 117.316 84.9282 117.308 84.9556C117.3 84.983 117.3 85.0121 117.308 85.0396C117.316 85.0671 117.331 85.0919 117.352 85.1111C117.255 85.3007 117.157 85.493 117.054 85.6827H116.983C116.955 85.6878 116.929 85.7004 116.908 85.7193C116.887 85.7381 116.871 85.7624 116.862 85.7896C116.854 85.8168 116.853 85.8457 116.86 85.8733C116.867 85.9009 116.881 85.9261 116.902 85.9461C115.99 87.5892 114.983 89.1776 113.886 90.7033C113.852 90.7265 113.827 90.7611 113.817 90.8007C112.308 92.908 110.656 94.9178 108.981 96.8591C107.113 99.0151 105.128 101.066 103.033 103.002H102.936C102.91 103.002 102.884 103.009 102.861 103.022C102.839 103.035 102.819 103.053 102.805 103.074C102.791 103.096 102.782 103.121 102.78 103.147C102.777 103.173 102.781 103.199 102.791 103.223C102.454 103.534 102.116 103.842 101.774 104.148H101.584C101.551 104.147 101.517 104.157 101.489 104.175C101.46 104.193 101.438 104.219 101.425 104.25C101.411 104.281 101.407 104.316 101.413 104.349C101.419 104.382 101.434 104.413 101.458 104.437C100.644 105.159 99.8169 105.865 98.9792 106.563C98.9388 106.562 98.8994 106.576 98.8681 106.602C98.8368 106.627 98.8155 106.663 98.808 106.703C98.4129 107.033 98.0143 107.36 97.6121 107.683H97.5252C97.5021 107.683 97.4794 107.689 97.4587 107.699C97.4381 107.71 97.4198 107.724 97.4053 107.742C97.3908 107.76 97.3804 107.781 97.3747 107.804C97.369 107.826 97.3683 107.85 97.3724 107.872C96.9703 108.194 96.5664 108.514 96.1607 108.834L95.6734 108.865C95.4864 108.881 95.5417 109.163 95.7261 109.152H95.7393L94.6356 110.003C94.4697 110.003 94.3037 110.003 94.1404 110.019C93.9297 110.019 93.8981 110.356 94.1141 110.351H94.1773L93.7242 110.722C93.7242 110.612 93.7242 110.501 93.7058 110.39L93.179 102.288C94.1931 101.498 95.1308 100.555 96.0765 99.7092C98.9371 97.1559 101.742 94.5403 104.49 91.8623C109.361 87.1246 113.975 82.1303 118.313 76.9006C118.603 78.1597 118.98 79.4741 119.249 80.778Z" fill="#58595B"/>
<path d="M104.284 90.6163C101.861 92.9992 99.3884 95.3295 96.8667 97.6071C94.3932 99.8488 91.58 103.476 87.9107 102.838C83.251 102.03 78.8758 99.6012 75.3619 96.3691C73.4735 94.4927 71.7398 92.4666 70.178 90.3107C70.1596 90.2765 70.1412 90.2449 70.1254 90.2106C67.5387 86.2595 65.8713 81.6182 65.8028 76.948C65.7475 73.2234 69.7698 71.0133 72.3696 68.9192C75.0177 66.7909 77.7063 64.7144 80.4352 62.6896C89.802 55.7699 99.7563 49.5613 110.366 44.7383C109.818 45.7366 110.195 47.0352 110.63 48.0678C111.531 50.283 113.045 52.3666 114.494 54.2526C117.655 58.3618 121.675 62.0811 126.234 64.5888C119.894 74.032 112.376 82.6534 104.284 90.6163Z" fill="#F1F2F2"/>
<path d="M110.712 44.2774C110.712 44.2774 109.236 52.5721 126.413 64.2965C129.869 60.0819 137.055 50.2093 139.197 36.6517C139.202 36.6596 126.15 35.8298 110.712 44.2774Z" fill="#AA1325"/>
<path d="M59.589 86.752C59.589 86.752 56.5756 84.5104 54.1602 84.9081L56.4439 86.752L46.3448 88.069L52.9669 91.3617C52.9669 91.3617 43.1418 93.8114 35.7215 98.666C35.7215 98.666 46.9612 98.9742 48.5417 100.107C48.5417 100.107 34.2728 105.059 22.5063 120.95C22.5063 120.95 34.9313 114.039 42.1751 117.276C42.1751 117.276 29.6183 128.152 25.8437 143.78C25.8437 143.78 41.34 127.098 48.2335 124.638C48.2335 124.638 49.5057 130.741 48.5417 136.931C48.5417 136.931 55.8723 130.697 58.3299 121.082C58.3299 121.082 60.0421 128.942 59.3836 133.331C59.3836 133.331 69.7803 121.838 68.998 114.471C69.7733 117.392 70.1464 120.405 70.107 123.426C70.107 123.426 74.548 120.318 76.3603 111.615C76.3603 111.615 77.5588 112.787 78.3938 113.812C78.3938 113.812 79.3237 110.846 78.5519 108.001C78.5519 108.014 63.6587 103.039 59.589 86.752Z" fill="#F7941D"/>
<path d="M62.3627 94.3067C62.3627 94.3067 58.0665 93.5428 55.4772 94.5385C55.4772 94.5385 62.2784 98.7294 62.6973 99.3932C62.6973 99.3932 53.5886 101.608 52.4032 102.786C52.4032 102.786 58.3247 103.526 58.9437 104.272C58.9437 104.272 50.209 110.514 48.2335 113.209C48.2335 113.209 48.892 113.472 56.1357 110.609C56.1357 110.609 54.7739 114.597 54.3367 116.017C54.3367 116.017 55.5641 116.509 62.1994 106.906C62.1994 106.906 63.2346 107.793 63.3505 113.209C63.3505 113.209 64.4331 114.479 66.9803 106.097C66.9803 106.097 68.8242 109.521 69.4353 109.619C69.4353 109.619 70.0806 110.272 70.8787 108.541L72.8016 105.02C68.6822 102.133 65.1412 98.4995 62.3627 94.3067Z" fill="#C9411C"/>
<path d="M111.017 66.3852C110.452 65.2014 109.744 64.0912 108.91 63.0795C108.901 63.084 108.892 63.0868 108.882 63.0877C108.872 63.0886 108.862 63.0875 108.853 63.0846C108.844 63.0816 108.835 63.0769 108.828 63.0706C108.82 63.0643 108.814 63.0565 108.81 63.0478C108.76 62.9477 108.702 62.8582 108.646 62.7634C107.464 61.3936 106.046 60.2162 104.561 59.6025C104.517 59.5856 104.48 59.5563 104.453 59.5182C100.175 58.3276 94.6013 60.6666 92.3176 64.3096C89.4938 68.8139 91.235 75.2305 95.7735 77.8778C100.565 80.6752 107.321 79.2818 110.343 74.5378C111.91 72.0933 112.266 69.0536 111.017 66.3852ZM107.479 75.2358C104.724 77.9015 99.4533 78.8893 96.3583 76.2894C93.1974 73.6369 91.6169 69.5251 93.7242 65.7531C95.4284 62.6975 98.8817 61.175 102.269 61.4121C103.617 61.4378 104.935 61.8124 106.096 62.4993C107.256 63.1862 108.218 64.162 108.889 65.3316C110.643 68.453 110.069 72.7334 107.482 75.2358H107.479Z" fill="#D1D3D4"/>
<path d="M102.812 76.7847C100.201 77.3379 97.8861 76.8795 96.0185 74.8961C94.4012 73.176 93.2422 71.0872 93.524 68.6638C93.9297 65.1684 96.49 63.1796 99.4981 62.313C103.133 61.4016 107.382 63.1032 108.702 66.791C110.324 71.3111 107.356 75.8259 102.812 76.7847Z" fill="#6D6E71"/>
<path d="M70.1254 90.2133C67.5387 86.2622 65.8713 81.6209 65.8028 76.9506C65.7475 73.226 69.7698 71.016 72.3696 68.9219C75.0177 66.7936 77.7063 64.717 80.4352 62.6923C91.7223 54.3554 103.86 47.0405 116.97 41.9515C124.048 39.2041 131.563 36.7307 139.252 37.0336C139.9 37.0573 139.981 36.0564 139.331 36.03C132.419 35.735 125.728 37.6553 119.288 39.9812C112.012 42.6373 104.978 45.913 98.2627 49.7721C91.672 53.5588 85.3174 57.7424 79.234 62.2998C76.1574 64.5827 73.1353 66.9429 70.1675 69.3803C67.8363 71.2847 64.9415 73.0496 64.7755 76.3474C64.4199 83.4147 68.3026 91.1537 73.5866 95.5579C73.8078 95.7423 74.0976 95.5421 74.1503 95.3076C72.5435 93.8246 71.1131 92.181 70.1254 90.2133Z" fill="#353535"/>
<path d="M96.0739 99.7118C98.9345 97.1585 101.739 94.5429 104.487 91.8649C109.94 86.5704 115.065 80.9494 119.836 75.033C124.7 69.0065 129.036 62.5732 132.798 55.8041C136.102 49.8063 139.044 43.4977 139.837 36.6253C139.91 35.9773 138.907 35.9036 138.833 36.5463C137.927 44.1852 134.308 51.2235 130.486 57.785C123.408 69.936 114.286 80.7806 104.284 90.6216C101.861 93.0046 99.3884 95.3348 96.8667 97.6125C94.3933 99.8541 91.5801 103.481 87.9108 102.844C83.2037 102.027 78.7837 99.5564 75.2487 96.2743C73.6498 94.9257 72.1589 93.4585 71.0078 91.7358C70.9531 91.745 70.9012 91.7668 70.8563 91.7996C70.8115 91.8323 70.7748 91.8749 70.7493 91.9242C70.7237 91.9736 70.71 92.0281 70.7091 92.0836C70.7083 92.1392 70.7204 92.1941 70.7444 92.2442C74.2662 98.1524 81.3019 103.199 88.3375 103.953C91.6301 104.298 93.827 101.716 96.0739 99.7118Z" fill="#353535"/>
<path d="M78.8153 99.4115C74.2425 95.8476 70.5785 91.2721 67.5282 86.3912C67.486 86.3227 67.357 86.3437 67.378 86.4386C68.0287 89.286 69.9305 91.8437 71.856 93.98C73.7815 96.1162 75.9546 98.5238 78.6177 99.8171C78.8574 99.9357 79.0076 99.5616 78.8153 99.4115Z" fill="#353535"/>
<path d="M127.016 64.0383C123.118 61.4569 119.517 58.6463 116.48 55.0824C114.987 53.3373 113.637 51.4752 112.442 49.5139C111.388 47.7675 110.983 46.3056 110.756 44.2931C110.755 44.2904 110.752 44.2881 110.749 44.2866C110.747 44.285 110.744 44.2842 110.74 44.2842C110.737 44.2842 110.734 44.285 110.731 44.2866C110.729 44.2881 110.726 44.2904 110.725 44.2931C109.705 45.3231 110.14 46.8851 110.63 48.0862C111.531 50.3015 113.045 52.3851 114.494 54.2711C117.715 58.4856 121.854 62.2682 126.537 64.7785C127.009 65.0208 127.496 64.3623 127.016 64.0383Z" fill="#353535"/>
<path d="M112.292 72.9284C114.081 67.7287 110.49 61.2014 105.37 59.3575C102.596 57.9404 99.0952 58.1827 96.0185 59.75C91.3562 62.1207 88.9486 67.1255 90.3131 72.2224C93.0736 82.5375 108.797 83.0907 112.292 72.9284ZM95.7762 77.8884C91.2377 75.2543 89.4965 68.8245 92.3203 64.3202C94.604 60.6772 100.178 58.3381 104.456 59.5287C104.482 59.5669 104.52 59.5962 104.564 59.613C106.049 60.2162 107.461 61.3937 108.649 62.7739C108.704 62.8688 108.762 62.9583 108.812 63.0584C108.817 63.0671 108.823 63.0748 108.83 63.0811C108.838 63.0874 108.846 63.0922 108.856 63.0951C108.865 63.0981 108.875 63.0992 108.885 63.0983C108.894 63.0974 108.904 63.0946 108.912 63.09C109.747 64.1018 110.455 65.212 111.02 66.3958C112.266 69.0642 111.91 72.1039 110.345 74.5615C107.329 79.2923 100.568 80.6937 95.7762 77.8884Z" fill="#353535"/>
<path d="M69.3431 101.824C66.0979 98.7768 63.4295 95.1444 61.7727 90.9957C60.9824 89.0149 60.0737 86.5178 60.0684 84.3367C60.0684 82.6219 60.8586 82.4244 62.2205 81.9134C63.2188 81.542 64.225 81.1784 65.2102 80.7728C65.2523 80.9335 65.2866 81.0968 65.334 81.2548C65.3814 81.4129 65.7159 81.5341 65.766 81.2891C65.8476 80.8992 65.9108 80.5779 65.9793 80.1854C65.9845 80.1166 65.9741 80.0475 65.9488 79.9833C65.9236 79.9191 65.8841 79.8615 65.8335 79.8146C65.7829 79.7678 65.7223 79.733 65.6563 79.7128C65.5904 79.6926 65.5207 79.6876 65.4525 79.6981C64.0195 80.1433 62.6156 80.678 61.209 81.2048C60.4425 81.484 59.5179 81.7474 59.1254 82.5376C58.7645 83.2805 59.0148 84.3367 59.1254 85.0953C59.3335 86.5495 59.6585 87.9844 60.0974 89.3863C61.6463 94.4956 64.7141 99.0122 68.8926 102.335C69.1903 102.557 69.6249 102.091 69.3431 101.824Z" fill="#353535"/>
<path d="M63.8299 95.3682C66.3297 99.056 69.5011 102.256 73.3416 104.54C75.1723 105.631 77.5088 106.911 79.6503 107.266C81.344 107.53 81.6627 106.792 82.3792 105.52C82.906 104.59 83.4328 103.655 83.9755 102.744C83.8227 102.678 83.6673 102.62 83.5171 102.549C83.367 102.478 83.3038 102.127 83.5514 102.114C83.9491 102.096 84.2784 102.083 84.6761 102.077C84.7459 102.083 84.8134 102.104 84.8737 102.14C84.9339 102.175 84.9852 102.224 85.0236 102.283C85.0619 102.341 85.0864 102.408 85.0952 102.477C85.1039 102.546 85.0966 102.617 85.0739 102.683C84.4101 104.029 83.6594 105.333 82.9192 106.634C82.5162 107.343 82.129 108.215 81.2755 108.478C80.4853 108.718 79.4817 108.307 78.7494 108.08C77.3464 107.648 75.9809 107.102 74.6666 106.447C69.8661 104.116 65.8882 100.38 63.261 95.7344C63.0766 95.4051 63.6034 95.0469 63.8299 95.3682Z" fill="#353535"/>
<path d="M97.0563 50.1146C94.6514 49.14 91.8408 47.5306 89.2067 47.3646C86.707 47.2039 83.8385 48.4973 81.5047 49.2849C72.6841 52.2793 64.4245 56.7233 57.0655 62.4343C55.7064 63.4879 54.3682 64.5758 53.0907 65.7269C52.5639 66.1984 51.7737 66.7594 51.7025 67.5312C51.4786 69.6385 55.3587 70.0494 56.7073 70.3602C60.0631 71.1294 63.4242 71.8775 66.7827 72.6387C67.4281 72.7836 67.7784 71.8037 67.1251 71.6536L59.0648 69.8334C57.8452 69.5568 56.6151 69.3066 55.4087 68.9852C54.9899 68.872 54.1522 68.7772 53.8045 68.4795C52.3795 67.2573 53.5174 66.7226 54.2444 66.093C58.3511 62.5225 62.8037 59.3706 67.5361 56.684C72.0269 54.1321 76.7467 52.0059 81.6337 50.3332C83.928 49.543 87.0652 48.1022 89.536 48.4709C91.7565 48.8028 94.014 49.9855 96.1212 50.8258C95.7709 51.3737 95.2915 52.1429 95.41 52.0138C95.3521 52.077 95.439 52.1771 95.4969 52.1165C95.2994 52.3246 97.0774 51.0629 97.1907 50.9602C97.2564 50.9046 97.3066 50.833 97.3366 50.7523C97.3666 50.6716 97.3752 50.5845 97.3617 50.4995C97.3482 50.4145 97.313 50.3344 97.2595 50.267C97.206 50.1996 97.136 50.1471 97.0563 50.1146Z" fill="#353535"/>
<path d="M119.125 75.9523C119.71 78.481 120.861 81.5102 120.613 84.1364C120.379 86.6309 118.653 89.2597 117.51 91.4434C114.558 97.0672 110.971 102.334 106.818 107.14C104.892 109.374 102.849 111.505 100.699 113.525C99.4455 114.7 98.1601 115.854 96.8246 116.933C96.2767 117.379 95.5971 118.064 94.8253 118.024C92.718 117.913 92.9103 114.018 92.8155 112.629C92.5811 109.205 92.3677 105.757 92.1412 102.322C92.099 101.661 93.1237 101.469 93.1658 102.138C93.3414 104.886 93.517 107.634 93.6926 110.383C93.7743 111.631 93.8243 112.885 93.9561 114.128C94.0035 114.558 93.9561 115.4 94.2195 115.793C95.202 117.389 95.9079 116.349 96.6455 115.73C100.814 112.232 104.623 108.327 108.017 104.074C111.239 100.038 114.078 95.7094 116.496 91.1457C117.634 88.999 119.552 86.1278 119.573 83.6201C119.594 81.3759 118.782 78.971 118.279 76.7399C117.684 77.0033 116.854 77.3536 116.994 77.2667C116.925 77.3141 116.838 77.214 116.907 77.164C116.67 77.3299 118.208 75.7758 118.313 75.6731C118.38 75.6183 118.459 75.5815 118.544 75.5662C118.629 75.5508 118.716 75.5575 118.797 75.5855C118.879 75.6135 118.952 75.6619 119.009 75.7262C119.066 75.7904 119.106 75.8683 119.125 75.9523Z" fill="#353535"/>
<path d="M107.482 75.2358C110.069 72.7334 110.643 68.453 108.886 65.3264C108.215 64.1568 107.253 63.181 106.093 62.4941C104.933 61.8071 103.615 61.4326 102.267 61.4068C98.8791 61.1698 95.4179 62.6923 93.7216 65.7478C91.6143 69.5304 93.1948 73.6501 96.3557 76.2842C99.456 78.8893 104.727 77.9015 107.482 75.2358ZM102.812 76.7847C100.201 77.3378 97.8861 76.8795 96.0185 74.896C94.4012 73.176 93.2422 71.0871 93.524 68.6638C93.9297 65.1683 96.49 63.1796 99.4982 62.313C103.133 61.4016 107.382 63.1032 108.702 66.7909C110.324 71.311 107.356 75.8259 102.812 76.7847Z" fill="#353535"/>
<path d="M109.094 67.452C106.955 67.0859 104.527 67.2018 102.364 67.3598C102.267 67.3598 102.29 67.502 102.364 67.5178C104.508 67.934 106.937 68.2923 109.12 68.1211C109.537 68.0868 109.437 67.5231 109.094 67.452Z" fill="#353535"/>
<path d="M109.005 70.0784C107.609 70.1784 106.249 69.6701 104.848 69.8439C104.825 69.8483 104.803 69.8603 104.787 69.878C104.772 69.8957 104.762 69.9182 104.76 69.9419C104.758 69.9656 104.764 69.9893 104.778 70.0092C104.791 70.0291 104.81 70.0442 104.832 70.052C105.622 70.2575 106.413 70.4129 107.182 70.6183C107.814 70.8159 108.479 70.8866 109.139 70.8264C109.632 70.7579 109.479 70.0467 109.005 70.0784Z" fill="#353535"/>
<path d="M101.401 69.9126C101.382 69.8937 101.35 69.9126 101.369 69.9423C101.387 69.9721 101.417 69.9342 101.401 69.9126Z" fill="#353535"/>
<path d="M101.334 70.023C98.7 69.6042 96.0659 69.0062 93.4134 68.7217C92.9445 68.6691 92.7654 69.425 93.2396 69.5436C95.8473 70.2047 98.6394 70.2996 101.316 70.2627C101.345 70.2612 101.373 70.2491 101.394 70.2285C101.415 70.2079 101.428 70.1804 101.431 70.151C101.433 70.1216 101.424 70.0923 101.406 70.0688C101.389 70.0452 101.363 70.0289 101.334 70.023Z" fill="#353535"/>
<path d="M96.6717 67.065C96.3873 66.7305 95.7498 66.6699 95.3415 66.583C94.8122 66.4617 94.2695 66.4095 93.7268 66.4276C93.678 66.4264 93.6295 66.4354 93.5843 66.4538C93.5391 66.4723 93.4981 66.4999 93.464 66.5348C93.4299 66.5698 93.4034 66.6114 93.3861 66.6571C93.3688 66.7027 93.3611 66.7515 93.3635 66.8002C93.3658 66.849 93.3782 66.8968 93.3998 66.9406C93.4214 66.9843 93.4519 67.0232 93.4892 67.0547C93.5265 67.0862 93.5699 67.1097 93.6166 67.1237C93.6634 67.1377 93.7126 67.142 93.7611 67.1361C94.3009 67.0791 94.8434 67.051 95.3863 67.0518C95.7841 67.0518 96.2898 67.2204 96.6665 67.0861C96.6699 67.0839 96.6723 67.0805 96.6733 67.0766C96.6743 67.0727 96.6737 67.0685 96.6717 67.065Z" fill="#353535"/>
<path d="M138.788 37.8002C137.429 37.2454 136.005 36.8631 134.55 36.6622C134.426 36.6464 134.402 36.8256 134.508 36.8624C135.951 37.2323 137.372 37.6871 138.762 38.2243C138.767 38.0846 138.778 37.9424 138.788 37.8002Z" fill="#353535"/>
<path d="M138.757 38.5481C136.868 37.8262 134.932 37.2357 132.962 36.7806C132.8 36.8298 132.639 36.8772 132.48 36.9229C132.489 36.9406 132.502 36.9561 132.518 36.9679C132.534 36.9798 132.552 36.9878 132.572 36.9914C134.692 37.4833 136.765 38.1593 138.767 39.0117C138.756 38.8575 138.752 38.7027 138.757 38.5481Z" fill="#353535"/>
<path d="M137.866 38.9223C136.048 38.089 134.146 37.4507 132.193 37.0178L131.766 37.1258C133.809 37.692 135.807 38.4141 137.74 39.2858C137.969 39.3832 138.088 39.0276 137.866 38.9223Z" fill="#353535"/>
<path d="M137.592 39.7046C135.47 38.7408 133.278 37.9361 131.036 37.297L130.436 37.4287C132.843 38.1255 135.191 39.0152 137.455 40.0891C137.695 40.1998 137.832 39.8126 137.592 39.7046Z" fill="#353535"/>
<path d="M137.679 40.853C134.632 39.6554 131.513 38.6464 128.341 37.8317L127.67 37.9607C131.028 38.8427 134.325 39.9434 137.54 41.256C137.79 41.3587 137.932 40.9531 137.679 40.853Z" fill="#353535"/>
<path d="M137.937 41.8778C134.247 40.3272 130.431 39.0935 126.532 38.1901L126.268 38.2533C130.224 39.2581 134.086 40.6048 137.808 42.2782C138.045 42.3993 138.196 41.9858 137.937 41.8778Z" fill="#353535"/>
<path d="M137.3 42.2913C133.275 40.7578 129.136 39.545 124.92 38.6642C124.779 38.7463 124.626 38.8067 124.467 38.8433C128.785 39.8288 133.026 41.1282 137.155 42.7312C137.426 42.8392 137.579 42.3993 137.3 42.2913Z" fill="#353535"/>
<path d="M136.905 42.9498C132.479 41.1726 127.872 39.8839 123.166 39.1067C123.005 39.1515 122.844 39.2015 122.686 39.2542C127.518 40.0874 132.238 41.4778 136.75 43.3976C137.029 43.5162 137.189 43.0631 136.905 42.9498Z" fill="#353535"/>
<path d="M137.371 44.4328C132.191 42.5109 126.887 40.9417 121.495 39.7362L121.029 39.9575C126.538 41.2014 131.944 42.8604 137.203 44.9201C137.511 45.0413 137.685 44.5487 137.371 44.4328Z" fill="#353535"/>
<path d="M135.356 45.5866C130.458 43.2771 125.302 41.5616 119.997 40.4764L119.565 40.6951L119.438 40.753C124.835 42.1833 130.043 43.8665 135.153 46.1687C135.514 46.332 135.712 45.7525 135.356 45.5866Z" fill="#353535"/>
<path d="M136.191 47.2776C130.35 44.6149 124.212 42.6572 117.908 41.4457C117.768 41.5036 117.629 41.5642 117.489 41.6195C123.892 42.9202 130.111 45.0018 136.007 47.8175C136.328 47.9598 136.518 47.4277 136.191 47.2776Z" fill="#353535"/>
<path d="M135.685 49.2796C135.746 49.194 135.814 49.1138 135.888 49.0399C135.878 49.0043 135.861 48.9714 135.837 48.9436C135.813 48.9157 135.782 48.8937 135.749 48.8792C129.479 45.9606 122.762 43.5636 115.953 42.1438L115.503 42.2887C122.481 43.8691 128.937 46.6955 135.585 49.3507C135.601 49.3532 135.617 49.3532 135.633 49.3507L135.685 49.2796Z" fill="#353535"/>
<path d="M135.369 49.7562C128.257 46.8587 120.955 44.2642 113.38 42.9076L112.919 43.034C120.602 44.409 127.865 47.2749 135.079 50.2146L135.369 49.7562Z" fill="#353535"/>
<path d="M134.679 50.8915C126.877 47.7306 118.959 44.7909 110.585 43.6925L110.164 43.8189C118.593 45.0201 126.574 48.1151 134.397 51.3867C134.495 51.2207 134.587 51.0574 134.679 50.8915Z" fill="#353535"/>
<path d="M134.01 52.1454C126.168 48.7553 118.103 45.7709 109.74 44.0034C109.79 44.1325 109.84 44.2668 109.887 44.388C118.145 46.2608 125.955 49.3928 133.726 52.7196C133.818 52.5273 133.913 52.3377 134.01 52.1454Z" fill="#353535"/>
<path d="M133.407 53.394C126.05 50.2488 118.414 47.4725 110.527 46.1028C110.572 46.2398 110.614 46.3662 110.656 46.5111C118.474 47.9809 125.781 50.989 133.146 53.9445L133.407 53.394Z" fill="#353535"/>
<path d="M133.167 53.8917C126.055 51.1259 118.719 48.6999 111.167 47.533C110.904 47.4935 110.883 47.8886 111.136 47.9308C118.693 49.1556 125.784 51.795 132.92 54.4238C133.001 54.2473 133.083 54.0682 133.167 53.8917Z" fill="#353535"/>
<path d="M132.488 55.359C125.626 52.5699 118.529 50.4012 111.28 48.8792C111.315 48.9582 111.349 49.0372 111.388 49.1136C111.428 49.19 111.483 49.2874 111.528 49.377C118.582 51.0109 125.504 53.1726 132.235 55.8437C132.324 55.6698 132.403 55.5171 132.488 55.359Z" fill="#353535"/>
<path d="M132.048 56.2282C125.527 53.7617 118.836 51.7686 112.029 50.2646C112.11 50.4016 112.192 50.5412 112.276 50.6782C118.91 52.276 125.439 54.2818 131.826 56.6839C131.903 56.5312 131.974 56.381 132.048 56.2282Z" fill="#353535"/>
<path d="M131.329 57.7613C125.439 55.2247 119.212 53.3308 112.998 51.8057C113.111 51.969 113.224 52.1349 113.343 52.2956C119.388 53.8629 125.217 55.928 131.028 58.2276C131.132 58.073 131.232 57.9176 131.329 57.7613Z" fill="#353535"/>
<path d="M130.678 58.7622C130.699 58.6985 130.695 58.6293 130.666 58.5687C130.638 58.508 130.587 58.4604 130.525 58.4356C125.148 56.3539 119.645 54.6137 114.049 53.2253C114.175 53.3834 114.312 53.5441 114.439 53.6995C119.839 55.1719 125.104 56.9789 130.351 58.9308C130.391 58.947 130.434 58.9519 130.477 58.9449C130.519 58.938 130.559 58.9194 130.591 58.8913L130.678 58.7622Z" fill="#353535"/>
<path d="M116.422 55.7883C120.653 56.9447 124.804 58.3197 128.939 59.8185C129.001 59.8401 129.068 59.8365 129.127 59.8083C129.186 59.7801 129.231 59.7298 129.253 59.6683C129.275 59.6068 129.271 59.5393 129.243 59.4805C129.215 59.4217 129.164 59.3765 129.103 59.3549C124.802 57.7274 120.403 56.3708 115.932 55.2931L116.422 55.7883Z" fill="#353535"/>
<path d="M129.529 60.4533C125.644 59.1073 121.664 57.9878 117.676 56.9816L118.321 57.59C121.991 58.6015 125.618 59.7263 129.253 60.8669L129.529 60.4533Z" fill="#353535"/>
<path d="M119.646 58.8598C122.56 59.758 125.441 60.7485 128.323 61.7573C128.39 61.7807 128.463 61.7767 128.527 61.746C128.59 61.7154 128.639 61.6607 128.663 61.594C128.686 61.5273 128.682 61.454 128.652 61.3903C128.621 61.3266 128.566 61.2776 128.5 61.2542C125.373 60.061 122.157 59.0679 118.927 58.1697C119.183 58.3962 119.409 58.628 119.646 58.8598Z" fill="#353535"/>
<path d="M128.349 62.2391C125.892 61.4489 123.397 60.7535 120.898 60.095C121.079 60.2767 121.264 60.4532 121.448 60.6218C123.666 61.2803 125.873 61.9731 128.089 62.6474C128.176 62.5183 128.26 62.3761 128.349 62.2391Z" fill="#353535"/>
<path d="M127.73 63.3086C125.981 62.6711 124.201 62.1022 122.42 61.5464C122.697 61.794 122.976 62.039 123.263 62.2734C124.714 62.7528 126.16 63.2638 127.591 63.7722C127.618 63.6125 127.665 63.4568 127.73 63.3086Z" fill="#353535"/>
<path d="M66.1189 82.232C65.2626 81.9492 64.3802 81.7525 63.4848 81.6446C63.037 81.584 62.0176 81.2732 61.6752 81.6683C61.6555 81.694 61.6449 81.7255 61.6449 81.7579C61.6449 81.7902 61.6555 81.8217 61.6752 81.8474L61.7094 81.8896C61.7249 81.9072 61.7447 81.9206 61.7668 81.9285C61.7889 81.9363 61.8127 81.9383 61.8359 81.9343H61.8912C61.9157 81.9308 61.9382 81.9189 61.955 81.9006C61.9718 81.8824 61.9818 81.859 61.9834 81.8342C62.0527 81.8539 62.1231 81.8697 62.1941 81.8817C62.3759 81.9185 62.5787 81.9212 62.7657 81.9449C63.1081 81.9897 63.4479 82.045 63.7877 82.1082C64.5253 82.2531 65.2365 82.4743 65.9582 82.6798C66.0176 82.7011 66.083 82.6979 66.1401 82.671C66.1971 82.6441 66.2412 82.5956 66.2625 82.5362C66.2838 82.4769 66.2806 82.4114 66.2537 82.3544C66.2268 82.2973 66.1783 82.2533 66.1189 82.232Z" fill="#353535"/>
<path d="M66.198 83.2434C64.0502 82.6203 61.8343 82.262 59.5996 82.1766C59.5625 82.1776 59.5271 82.1923 59.5002 82.2178C59.4734 82.2433 59.4568 82.2779 59.4539 82.3148C59.451 82.3518 59.4618 82.3885 59.4843 82.4179C59.5068 82.4474 59.5394 82.4674 59.5759 82.4743C61.7709 82.638 63.9423 83.0354 66.0531 83.6596C66.3244 83.7334 66.4719 83.3277 66.198 83.2434Z" fill="#353535"/>
<path d="M66.356 84.305C64.0327 83.4752 61.4829 83.1328 59.028 83.0327C59.0026 83.0343 58.9787 83.045 58.9606 83.0629C58.9425 83.0808 58.9315 83.1045 58.9296 83.1299C58.9276 83.1552 58.9349 83.1804 58.9501 83.2008C58.9653 83.2212 58.9873 83.2354 59.0122 83.2408C61.5066 83.4015 63.8457 83.9599 66.2375 84.65C66.2601 84.6578 66.2841 84.6611 66.308 84.6596C66.3319 84.6581 66.3553 84.6519 66.3768 84.6414C66.3984 84.6309 66.4176 84.6162 66.4335 84.5983C66.4493 84.5803 66.4615 84.5594 66.4693 84.5368C66.4771 84.5141 66.4803 84.4902 66.4788 84.4662C66.4773 84.4423 66.4712 84.4189 66.4606 84.3974C66.4501 84.3759 66.4355 84.3567 66.4175 84.3408C66.3996 84.3249 66.3787 84.3128 66.356 84.305Z" fill="#353535"/>
<path d="M67.1462 85.6616C64.9547 84.4104 62.1625 83.902 59.6707 83.6965C59.6149 83.6965 59.5612 83.7175 59.5203 83.7553C59.4794 83.7932 59.4542 83.845 59.4499 83.9006C59.4456 83.9562 59.4624 84.0114 59.497 84.0551C59.5315 84.0988 59.5814 84.1279 59.6364 84.1364L60.129 84.3208C60.1435 84.3298 60.16 84.3347 60.177 84.3351C60.194 84.3354 60.2108 84.3312 60.2256 84.3229C60.2404 84.3145 60.2527 84.3024 60.2612 84.2876C60.2697 84.2729 60.2741 84.2562 60.2739 84.2392C62.584 84.6369 64.6807 85.4113 66.925 86.1041C67.1831 86.1858 67.4044 85.8091 67.1462 85.6616Z" fill="#353535"/>
<path d="M67.5546 86.9787C67.3781 86.1121 65.4078 86.0568 64.715 85.8777C63.0713 85.4562 61.4329 84.9979 59.7734 84.6581C59.5311 84.608 59.4863 85.0137 59.6997 85.0558C60.8903 85.443 62.1073 85.7539 63.3163 86.0831C63.7114 86.1911 66.9013 86.7996 66.9566 87.0841C66.9635 87.1233 66.9781 87.1609 66.9995 87.1945C67.021 87.2281 67.0488 87.2572 67.0814 87.2801C67.1141 87.3029 67.1509 87.3191 67.1898 87.3278C67.2288 87.3364 67.269 87.3373 67.3083 87.3304C67.3475 87.3235 67.385 87.3089 67.4187 87.2875C67.4523 87.266 67.4814 87.2382 67.5042 87.2055C67.5271 87.1729 67.5433 87.1361 67.552 87.0971C67.5606 87.0582 67.5615 87.018 67.5546 86.9787Z" fill="#353535"/>
<path d="M67.6414 88.0954C65.2707 87.3842 62.7973 86.7046 60.3291 86.4728C60.1869 86.4597 60.1316 86.6862 60.2765 86.7231C62.6893 87.321 65.1021 87.811 67.4754 88.5669C67.781 88.667 67.9496 88.1903 67.6414 88.0954Z" fill="#353535"/>
<path d="M68.3158 89.344C65.7625 88.4841 63.1221 87.909 60.4425 87.6292C60.2607 87.6081 60.2449 87.8795 60.4214 87.9111C63.0334 88.4082 65.6154 89.052 68.1551 89.8392C68.2172 89.8493 68.2808 89.8368 68.3344 89.804C68.3881 89.7712 68.4283 89.7203 68.4477 89.6605C68.4671 89.6007 68.4645 89.5359 68.4403 89.4778C68.4161 89.4198 68.3719 89.3723 68.3158 89.344Z" fill="#353535"/>
<path d="M69.3536 90.6506C66.4034 89.7075 63.2952 88.8515 60.2212 88.4037C59.9578 88.3668 59.8366 88.6486 59.9078 88.8541C59.9246 88.934 59.9615 89.0083 60.0149 89.07C60.0684 89.1318 60.1366 89.1789 60.2133 89.2071C60.2468 89.2268 60.2838 89.2397 60.3223 89.2449C60.3608 89.2501 60.4 89.2477 60.4375 89.2376C60.475 89.2276 60.5101 89.2101 60.5408 89.1863C60.5715 89.1626 60.5972 89.1329 60.6163 89.0991C63.5481 89.5153 66.3797 90.4293 69.2878 90.9719C69.4853 91.0009 69.5143 90.7243 69.3536 90.6506Z" fill="#353535"/>
<path d="M71.4161 92.3601C68.1656 91.4223 64.8835 90.6058 61.5935 89.8182C61.2616 89.7392 61.0878 90.2528 61.4197 90.3213C64.7413 91.022 68.0471 91.7806 71.3608 92.5155C71.4635 92.5471 71.5214 92.389 71.4161 92.3601Z" fill="#353535"/>
<path d="M72.2617 93.9721C70.2597 93.2556 68.1788 92.7367 66.1374 92.1467C64.5016 91.6725 62.8738 91.093 61.1774 90.9007C61.1006 90.8945 61.0244 90.919 60.9656 90.9689C60.9068 91.0187 60.8702 91.0899 60.8639 91.1668C60.8577 91.2436 60.8822 91.3198 60.932 91.3786C60.9819 91.4374 61.0531 91.474 61.13 91.4803C64.8915 91.7832 68.545 93.3531 72.2459 94.0538C72.2959 94.0617 72.2959 93.9879 72.2617 93.9721Z" fill="#353535"/>
<path d="M73.2679 95.039C69.4092 93.828 65.4829 92.8438 61.5093 92.0914C61.5545 92.3029 61.6125 92.5114 61.6831 92.7157C65.5342 93.5297 69.3773 94.4226 73.2389 95.176C73.3179 95.1812 73.3495 95.0627 73.2679 95.039Z" fill="#353535"/>
<path d="M74.93 96.1716C70.8471 95.1812 66.7011 94.3014 62.5497 93.7061C62.1309 93.6455 62.0914 94.2829 62.4971 94.3514C66.6273 95.0547 70.7497 95.7317 74.8589 96.5509C75.0617 96.5931 75.1407 96.2348 74.93 96.1716Z" fill="#353535"/>
<path d="M75.9836 97.4018C72.1273 96.6616 68.2421 96.0584 64.3726 95.3999C63.9722 95.3314 63.9195 95.9689 64.3225 96.0295C68.1973 96.609 72.0694 97.2464 75.9573 97.7416C76.1654 97.7706 76.1812 97.444 75.9836 97.4018Z" fill="#353535"/>
<path d="M77.1268 98.1946C73.2257 98.4369 69.4879 97.2384 65.6343 96.8038C65.2154 96.7564 65.168 97.3991 65.5842 97.4544L66.9487 97.6388C66.9774 97.6441 67.0069 97.6441 67.0356 97.6388C70.4178 98.1076 73.7657 98.8979 77.2006 98.6108C77.4692 98.5844 77.3902 98.1788 77.1268 98.1946Z" fill="#353535"/>
<path d="M79.8215 99.775C75.6886 99.3272 71.6031 98.4816 67.4729 98.0496C67.0909 98.0101 67.0672 98.5633 67.4281 98.6318C71.4819 99.4035 75.6833 99.796 79.8083 100.107C79.8523 100.109 79.8952 100.093 79.9276 100.063C79.9599 100.033 79.9791 99.9915 79.9808 99.9475C79.9826 99.9035 79.9668 99.8606 79.9369 99.8282C79.907 99.7959 79.8655 99.7767 79.8215 99.775Z" fill="#353535"/>
<path d="M80.8699 100.845C76.3919 100.428 71.9403 99.9621 67.4782 99.4801C67.4489 99.4486 67.4128 99.4243 67.3725 99.4092C67.3323 99.3941 67.2891 99.3886 67.2464 99.3931L66.8302 99.4221C66.4719 99.4485 66.5167 100.012 66.8591 100.038C71.5241 100.402 76.1812 100.784 80.8383 101.219C80.8879 101.223 80.9371 101.207 80.9751 101.175C81.0132 101.143 81.0369 101.097 81.0411 101.047C81.0453 100.998 81.0296 100.949 80.9975 100.91C80.9654 100.872 80.9195 100.849 80.8699 100.845Z" fill="#353535"/>
<path d="M83.0061 101.766C78.1225 101.503 73.26 101.166 68.3895 100.615C67.9786 100.542 67.9101 101.234 68.3368 101.271C73.2099 101.674 78.0988 101.969 82.9903 101.998C83.1378 101.998 83.1589 101.766 83.0061 101.766Z" fill="#353535"/>
<path d="M83.7436 102.465C78.8811 102.746 73.9974 102.064 69.1481 101.774C69.0631 101.771 68.9801 101.801 68.9164 101.857C68.8528 101.913 68.8134 101.992 68.8066 102.077C68.7998 102.162 68.8261 102.246 68.8799 102.312C68.9337 102.378 69.011 102.42 69.0954 102.43C73.95 102.733 78.9416 103.199 83.7963 102.76C83.9912 102.744 83.9306 102.454 83.7436 102.465Z" fill="#353535"/>
<path d="M83.7911 103.084C79.3527 102.983 74.8694 102.873 70.4336 102.925C70.0385 102.925 69.9779 103.529 70.3836 103.547C74.857 103.714 79.3362 103.639 83.8016 103.323C83.9386 103.315 83.9281 103.084 83.7911 103.084Z" fill="#353535"/>
<path d="M83.5092 104.271C79.9427 104.74 76.3814 104.509 72.8016 104.672C73.065 104.864 73.3021 105.07 73.5444 105.278C76.8871 105.151 80.3035 105.278 83.5672 104.553C83.539 104.461 83.5196 104.367 83.5092 104.271Z" fill="#353535"/>
<path d="M83.0246 105.425C81.5539 105.638 80.0718 105.763 78.5861 105.799C77.6036 105.839 76.0363 105.623 75.2171 106.184C75.1798 106.216 75.1503 106.256 75.1309 106.301C75.1115 106.346 75.1027 106.395 75.1053 106.444C75.1078 106.494 75.1216 106.541 75.1456 106.584C75.1695 106.627 75.203 106.664 75.2435 106.692L75.2935 106.729C75.3636 106.774 75.4484 106.791 75.5304 106.775C75.6123 106.759 75.685 106.713 75.7334 106.645L75.7466 106.626C76.2918 106.408 77.1427 106.45 77.6826 106.4C78.4571 106.326 79.2315 106.276 80.0033 106.207C80.9548 106.133 81.9 105.993 82.8323 105.789C82.8902 105.666 82.9543 105.545 83.0246 105.425Z" fill="#353535"/>
<path d="M82.5689 106.289C81.4611 106.443 80.3445 106.523 79.2262 106.529C79.1862 106.519 79.1445 106.518 79.1043 106.528C79.0642 106.537 79.0267 106.555 78.9949 106.581C78.9631 106.607 78.9379 106.641 78.9214 106.678C78.9048 106.716 78.8973 106.757 78.8994 106.798C78.9016 106.839 78.9133 106.879 78.9338 106.915C78.9542 106.951 78.9827 106.981 79.0171 107.004C79.0514 107.027 79.0906 107.041 79.1315 107.046C79.1724 107.051 79.2138 107.046 79.2525 107.032C80.3062 106.921 81.3756 106.784 82.4293 106.589C82.474 106.487 82.5214 106.387 82.5689 106.289Z" fill="#353535"/>
<path d="M92.4573 48.8211C92.5679 48.6921 92.3493 48.4945 92.2334 48.6209L91.8225 49.0635C91.7909 49.1003 91.8225 49.1662 91.8725 49.1398C90.645 49.7668 89.378 51.2102 88.1716 52.1058C86.7545 53.1595 85.2741 54.1262 83.7727 55.0587C80.9832 56.7945 78.1278 58.4198 75.3857 60.2346C69.5907 64.0672 64.1013 68.05 57.2421 69.7174C57.1926 69.7308 57.1499 69.7623 57.1224 69.8056C57.095 69.8489 57.0847 69.9009 57.0936 69.9514C57.1025 70.0019 57.13 70.0472 57.1706 70.0785C57.2112 70.1098 57.2621 70.1247 57.3132 70.1204C63.9959 69.2353 69.5855 64.9971 75.0328 61.341C80.92 57.3846 87.7581 54.2895 92.4573 48.8211Z" fill="#353535"/>
<path d="M95.1756 49.9644C93.9629 49.854 92.7447 49.8162 91.5274 49.8511C91.5203 49.8323 91.5061 49.8171 91.4879 49.8087C91.4696 49.8004 91.4488 49.7995 91.4299 49.8063L91.0243 49.8643C90.9824 49.8651 90.9424 49.8814 90.9119 49.9101C90.8814 49.9388 90.8627 49.9779 90.8594 50.0196C90.8561 50.0613 90.8685 50.1028 90.8941 50.1359C90.9197 50.1691 90.9567 50.1915 90.998 50.1988C92.3703 50.3015 93.7611 50.3806 95.1387 50.4438C95.2023 50.4487 95.2652 50.4281 95.3136 50.3866C95.3621 50.3451 95.392 50.2861 95.3969 50.2225C95.4018 50.1589 95.3812 50.096 95.3397 50.0476C95.2982 49.9992 95.2392 49.9693 95.1756 49.9644Z" fill="#353535"/>
<path d="M96.2187 51.0575C96.3583 50.9126 96.3162 50.6124 96.0738 50.6071C93.9665 50.5649 91.8435 50.6308 89.7336 50.6914C89.5334 50.6914 89.5018 51.0048 89.7072 51.0048C91.667 51.0048 93.6268 51.0786 95.5839 51.1102C95.6007 51.1596 95.6346 51.2014 95.6796 51.228C95.7245 51.2545 95.7774 51.2642 95.8289 51.2551C95.9042 51.252 95.978 51.2327 96.0452 51.1986C96.1125 51.1645 96.1716 51.1164 96.2187 51.0575Z" fill="#353535"/>
<path d="M94.8991 52.0557L94.9122 51.9978C94.9287 51.9425 94.9238 51.8831 94.8984 51.8314C94.873 51.7796 94.829 51.7393 94.7753 51.7185C94.4091 51.5421 93.9034 51.6369 93.5056 51.6316C92.8963 51.6316 92.2861 51.636 91.6749 51.6448C90.566 51.6659 89.4597 51.7212 88.3507 51.8002C88.2164 51.8002 88.2269 52.0452 88.3639 52.0399C89.3965 52.003 90.4316 51.9872 91.4642 52.0004C91.9515 52.0004 92.4388 52.0162 92.9261 52.0346L93.6558 52.0636C94.1642 52.0899 94.0772 52.0373 94.5645 51.816C94.5188 51.8361 94.4822 51.8724 94.4615 51.9179C94.4409 51.9634 94.4378 52.0149 94.4528 52.0626C94.4679 52.1102 94.4999 52.1506 94.5429 52.1761C94.5859 52.2016 94.6367 52.2103 94.6857 52.2006H94.7358C94.7738 52.1942 94.8094 52.1773 94.8383 52.1516C94.8671 52.126 94.8882 52.0928 94.8991 52.0557Z" fill="#353535"/>
<path d="M93.5899 52.4932C91.4497 52.464 89.3108 52.6093 87.1943 52.9278C87.0283 52.9489 87.0784 53.1912 87.2417 53.1912C89.3434 53.0025 91.4538 52.9286 93.5635 52.9699C93.8506 52.962 93.8954 52.509 93.5899 52.4932Z" fill="#353535"/>
<path d="M91.7724 53.4096C89.8513 53.5133 87.9328 53.6353 86.0169 53.7758C85.8062 53.7916 85.8694 54.105 86.0748 54.0945C87.8608 53.9962 89.6484 53.9154 91.4379 53.8522C91.4592 53.8668 91.4832 53.8769 91.5086 53.8819C91.534 53.8869 91.5601 53.8866 91.5854 53.8812L91.8488 53.8337C92.1306 53.7837 92.0516 53.3938 91.7724 53.4096Z" fill="#353535"/>
<path d="M90.4711 54.4502C88.6869 54.5608 86.9045 54.6978 85.1239 54.8611C84.9395 54.8769 84.9948 55.1535 85.1739 55.1403C86.8202 55.0191 88.4665 54.9401 90.1181 54.8769C90.1395 54.8944 90.1647 54.9066 90.1917 54.9125C90.2187 54.9185 90.2467 54.918 90.2735 54.9111L90.5369 54.8611C90.8214 54.8216 90.7345 54.4344 90.4711 54.4502Z" fill="#353535"/>
<path d="M88.6483 55.6513C86.8308 55.711 85.0151 55.8094 83.201 55.9463C83.0193 55.9621 83.0746 56.2361 83.2511 56.2255C85.0405 56.136 86.8291 56.0859 88.6167 56.0754C88.8907 56.0728 88.9197 55.6408 88.6483 55.6513Z" fill="#353535"/>
<path d="M87.2602 56.9104H81.3361C81.1227 56.9104 81.0938 57.2397 81.3098 57.2423L87.2259 57.324C87.4999 57.3398 87.5315 56.9104 87.2602 56.9104Z" fill="#353535"/>
<path d="M85.6929 57.9852C83.6462 57.9062 81.5995 57.9194 79.5502 57.9852C79.3605 57.9852 79.3342 58.2908 79.5265 58.2855C81.5731 58.2197 83.6172 58.2697 85.6613 58.3935C85.7154 58.3977 85.769 58.3802 85.8102 58.3449C85.8515 58.3096 85.877 58.2593 85.8812 58.2052C85.8854 58.151 85.8679 58.0974 85.8326 58.0562C85.7973 58.0149 85.747 57.9894 85.6929 57.9852Z" fill="#353535"/>
<path d="M83.4802 59.2943C81.7125 59.1231 79.9336 59.0994 78.162 59.2232C77.9987 59.2232 78.0461 59.4866 78.2041 59.4682C79.9553 59.3693 81.7118 59.4221 83.4539 59.6262C83.6672 59.6525 83.6936 59.3154 83.4802 59.2943Z" fill="#353535"/>
<path d="M82.5873 60.1977C80.4431 60.1661 78.2998 60.1925 76.1574 60.2768C75.9467 60.2768 75.9151 60.6139 76.1311 60.6087C78.2726 60.5586 80.4141 60.5639 82.553 60.6376C82.8322 60.6455 82.8717 60.2004 82.5873 60.1977Z" fill="#353535"/>
<path d="M80.7724 61.299C78.793 61.0597 76.7916 61.0668 74.814 61.32C74.6481 61.3385 74.6955 61.5834 74.8588 61.5834C76.8192 61.4346 78.7888 61.4531 80.746 61.6388C80.7911 61.6423 80.8357 61.6277 80.87 61.5983C80.9043 61.5689 80.9256 61.5271 80.9291 61.482C80.9326 61.437 80.918 61.3924 80.8886 61.358C80.8592 61.3237 80.8174 61.3025 80.7724 61.299Z" fill="#353535"/>
<path d="M79.1946 62.5184C76.9846 62.4894 74.7588 62.6448 72.554 62.7818C72.3854 62.7818 72.3986 63.0847 72.5698 63.0768C74.7667 62.9767 76.9688 62.982 79.1551 62.8819C79.3895 62.8661 79.429 62.5184 79.1946 62.5184Z" fill="#353535"/>
<path d="M77.4929 63.3667C75.2066 63.3825 72.7516 63.4009 70.4942 63.746C70.4654 63.7503 70.4392 63.7647 70.4202 63.7867C70.4012 63.8087 70.3908 63.8368 70.3908 63.8659C70.3908 63.8949 70.4012 63.923 70.4202 63.945C70.4392 63.967 70.4654 63.9814 70.4942 63.9857C72.7832 64.1648 75.2171 63.9989 77.5061 63.8461C77.788 63.8356 77.7669 63.3667 77.4929 63.3667Z" fill="#353535"/>
<path d="M76.5104 64.0989C74.311 64.1489 72.1141 64.2517 69.9252 64.4202C69.8646 64.4202 69.8699 64.5282 69.9252 64.5282C72.1115 64.4457 74.2969 64.4299 76.4815 64.4808C76.737 64.4808 76.7738 64.0989 76.5104 64.0989Z" fill="#353535"/>
<path d="M75.8915 64.8602C73.3864 64.8049 70.8867 64.8866 68.3817 65.0815C68.2421 65.0946 68.2816 65.3054 68.4185 65.2948C70.8959 65.146 73.3799 65.146 75.8572 65.2948C76.1364 65.308 76.1707 64.8681 75.8915 64.8602Z" fill="#353535"/>
<path d="M74.7139 65.811C72.3453 65.6348 69.966 65.6612 67.6019 65.89C67.4834 65.89 67.5202 66.0744 67.6361 66.0691C69.9875 65.9795 72.3422 66.0297 74.6876 66.2193C74.7388 66.2178 74.7875 66.1973 74.8244 66.1618C74.8612 66.1262 74.8834 66.0782 74.8867 66.0271C74.89 65.9761 74.8741 65.9256 74.8422 65.8856C74.8102 65.8456 74.7645 65.819 74.7139 65.811Z" fill="#353535"/>
<path d="M73.3811 66.762C70.8245 66.4723 68.2478 66.4009 65.679 66.5486C65.4736 66.5486 65.4446 66.8779 65.6527 66.8726C68.2206 66.84 70.7884 66.9499 73.3442 67.2019C73.4002 67.2026 73.4544 67.1821 73.4959 67.1445C73.5373 67.1068 73.563 67.0549 73.5677 66.9991C73.5724 66.9433 73.5557 66.8878 73.5211 66.8438C73.4865 66.7998 73.4364 66.7705 73.3811 66.762Z" fill="#353535"/>
<path d="M71.9745 67.6445C71.6294 67.3969 71.0183 67.4575 70.61 67.4232C69.8909 67.36 69.1718 67.3205 68.4501 67.2968C67.0619 67.2547 65.6737 67.2968 64.2856 67.3811C64.1275 67.3811 64.1407 67.6708 64.3014 67.6629C65.5447 67.6024 66.788 67.5918 68.0313 67.6445C68.6187 67.6708 69.2087 67.7077 69.7935 67.7604C70.3203 67.8078 71.1368 67.7472 71.6373 67.9527L71.6584 67.979C71.6952 68.0192 71.746 68.0438 71.8004 68.0477C71.8548 68.0517 71.9086 68.0346 71.9508 68.0001L71.985 67.9738C72.0091 67.9533 72.0283 67.9276 72.0411 67.8986C72.0539 67.8697 72.06 67.8382 72.059 67.8066C72.058 67.775 72.0499 67.744 72.0352 67.7159C72.0206 67.6879 71.9998 67.6634 71.9745 67.6445Z" fill="#353535"/>
<path d="M70.7655 68.3503C67.868 68.1343 64.9705 68.0869 62.0598 68.1264C61.8517 68.1264 61.8228 68.4504 62.0335 68.4504C64.931 68.4504 67.8285 68.5768 70.726 68.7744C70.7803 68.7761 70.8332 68.7571 70.8739 68.7211C70.9147 68.6852 70.9402 68.635 70.9452 68.5809C70.9502 68.5268 70.9345 68.4729 70.9011 68.43C70.8677 68.3871 70.8192 68.3586 70.7655 68.3503Z" fill="#353535"/>
<path d="M70.2519 69.2618C66.915 68.9019 63.5549 68.805 60.2028 68.972C60.1106 68.972 60.1185 69.1406 60.2028 69.138C63.5492 69.0654 66.8962 69.2574 70.2124 69.7122C70.5047 69.7491 70.5416 69.2934 70.2519 69.2618Z" fill="#353535"/>
<path d="M70.1333 69.9966C66.3771 69.9966 62.5998 69.9966 58.8515 70.26C58.7672 70.26 58.7751 70.4075 58.8515 70.4075C62.5972 70.476 66.3428 70.4075 70.0885 70.4865C70.4073 70.4839 70.452 69.9966 70.1333 69.9966Z" fill="#353535"/>
<path d="M67.8864 70.9607H62.0229C61.8596 70.9607 61.8359 71.2241 62.0018 71.2241C63.9528 71.2662 65.9038 71.311 67.8548 71.3584C68.1103 71.3637 68.1419 70.9607 67.8864 70.9607Z" fill="#353535"/>
<path d="M109.568 97.2885C111.868 94.6547 113.965 91.8511 115.843 88.9016C116.625 87.6606 117.334 86.3747 117.966 85.0506C118.493 83.9179 119.66 81.9581 119.546 80.6964C119.546 80.7596 119.646 80.7491 119.654 80.6964C119.678 80.4988 119.699 80.3013 119.723 80.1037C119.726 80.0755 119.719 80.0471 119.702 80.0241C119.685 80.0011 119.661 79.9852 119.633 79.9795C119.605 79.9739 119.576 79.9789 119.552 79.9937C119.527 80.0084 119.509 80.0317 119.501 80.059C117.418 86.4335 113.317 91.8702 108.965 96.8961C104.321 102.28 99.0003 106.787 93.3186 111.028C93.0157 111.255 93.3923 111.66 93.6926 111.465C99.6404 107.598 104.959 102.628 109.568 97.2885Z" fill="#353535"/>
<path d="M120.236 82.8879C119.968 82.8075 119.687 82.7754 119.407 82.7931C119.204 82.7931 118.846 82.7404 118.685 82.8827C118.663 82.9016 118.646 82.926 118.637 82.9534C118.627 82.9808 118.625 83.0102 118.63 83.0387C118.636 83.0672 118.648 83.0939 118.667 83.1159C118.686 83.138 118.71 83.1548 118.738 83.1645C118.836 83.1922 118.938 83.2029 119.041 83.1961C119.164 83.1961 119.288 83.2146 119.409 83.2277C119.653 83.2757 119.899 83.3056 120.147 83.3173C120.2 83.3212 120.253 83.3055 120.296 83.2732C120.339 83.241 120.368 83.1942 120.379 83.1418C120.39 83.0893 120.382 83.0347 120.356 82.988C120.329 82.9413 120.287 82.9058 120.236 82.8879Z" fill="#353535"/>
<path d="M120.563 83.3911C119.888 83.3946 119.214 83.4324 118.543 83.5044C118.363 83.5044 118.379 83.8178 118.558 83.8178C119.233 83.8468 119.91 83.8415 120.584 83.802C120.633 83.792 120.676 83.7649 120.707 83.7256C120.737 83.6862 120.753 83.6372 120.75 83.5875C120.748 83.5378 120.727 83.4907 120.693 83.4546C120.659 83.4186 120.612 83.3961 120.563 83.3911Z" fill="#353535"/>
<path d="M120.01 84.0495C119.319 84.0512 118.63 84.1032 117.947 84.2049C117.779 84.2312 117.826 84.4893 117.995 84.4683C118.653 84.3835 119.319 84.3712 119.981 84.4314C120.236 84.4525 120.255 84.0468 120.01 84.0495Z" fill="#353535"/>
<path d="M119.973 84.9083C119.131 84.7381 118.267 84.7176 117.418 84.8477C117.215 84.8767 117.273 85.1822 117.473 85.1585C118.281 85.0624 119.1 85.1097 119.891 85.2981C119.918 85.3066 119.946 85.3094 119.974 85.3064C120.002 85.3033 120.029 85.2944 120.053 85.2803C120.077 85.2662 120.098 85.2472 120.114 85.2244C120.131 85.2017 120.142 85.1758 120.148 85.1484C120.154 85.121 120.154 85.0927 120.148 85.0653C120.142 85.0379 120.13 85.0121 120.114 84.9894C120.097 84.9668 120.076 84.9479 120.052 84.9339C120.028 84.9199 120.001 84.9112 119.973 84.9083Z" fill="#353535"/>
<path d="M119.507 85.6483C118.668 85.5359 117.817 85.5528 116.983 85.6984C116.775 85.73 116.836 86.0435 117.041 86.0198C117.852 85.9486 118.667 85.9486 119.478 86.0198C119.527 86.0236 119.576 86.0077 119.613 85.9756C119.651 85.9435 119.674 85.8978 119.678 85.8485C119.682 85.7993 119.666 85.7505 119.634 85.713C119.602 85.6754 119.556 85.6522 119.507 85.6483Z" fill="#353535"/>
<path d="M118.982 86.3807L116.875 86.4913C116.712 86.4913 116.725 86.7863 116.891 86.7811L118.998 86.7284C119.021 86.7273 119.044 86.7218 119.064 86.7121C119.085 86.7024 119.103 86.6887 119.119 86.6719C119.134 86.655 119.146 86.6352 119.154 86.6138C119.162 86.5923 119.165 86.5695 119.164 86.5466C119.163 86.5238 119.158 86.5014 119.148 86.4807C119.138 86.46 119.125 86.4414 119.108 86.426C119.091 86.4106 119.071 86.3987 119.05 86.3909C119.028 86.3831 119.005 86.3796 118.982 86.3807Z" fill="#353535"/>
<path d="M118.427 87.2947C117.726 87.1238 116.994 87.1283 116.296 87.3079C116.25 87.321 116.211 87.3505 116.186 87.3907C116.161 87.4309 116.151 87.479 116.159 87.5258C116.168 87.5725 116.193 87.6146 116.23 87.6439C116.267 87.6732 116.314 87.6877 116.362 87.6845C117.018 87.5936 117.684 87.6042 118.337 87.7162C118.389 87.7181 118.439 87.7018 118.48 87.6702C118.52 87.6385 118.549 87.5935 118.559 87.5431C118.57 87.4927 118.563 87.4402 118.538 87.3947C118.514 87.3493 118.475 87.3138 118.427 87.2947Z" fill="#353535"/>
<path d="M117.992 88.3326C117.158 88.2171 116.31 88.2718 115.498 88.4933C115.266 88.5512 115.329 88.9173 115.563 88.862C116.351 88.6893 117.16 88.6396 117.963 88.7145C118.011 88.7139 118.057 88.6953 118.092 88.6624C118.127 88.6295 118.149 88.5847 118.152 88.5368C118.156 88.4889 118.141 88.4414 118.112 88.4036C118.082 88.3658 118.039 88.3405 117.992 88.3326Z" fill="#353535"/>
<path d="M117.233 89.4443C116.477 89.3221 115.705 89.34 114.955 89.497C114.908 89.5102 114.867 89.5405 114.841 89.582C114.815 89.6235 114.805 89.6733 114.814 89.7216C114.822 89.7699 114.848 89.8133 114.887 89.8433C114.926 89.8734 114.975 89.8879 115.023 89.8842C115.743 89.7596 116.478 89.7454 117.202 89.842C117.463 89.8736 117.484 89.4864 117.233 89.4443Z" fill="#353535"/>
<path d="M117.004 90.748L113.986 90.7032C113.767 90.7032 113.738 91.0378 113.959 91.043L116.975 91.1142C117.207 91.1089 117.233 90.7507 117.004 90.748Z" fill="#353535"/>
<path d="M116.233 92.1494C115.195 91.9249 114.128 91.8627 113.072 91.965C112.835 91.9834 112.906 92.339 113.137 92.3259C114.143 92.2932 115.149 92.3638 116.14 92.5366C116.372 92.5682 116.454 92.2021 116.233 92.1494Z" fill="#353535"/>
<path d="M115.716 93.2505C114.551 93.1758 113.381 93.1961 112.218 93.311C111.955 93.3268 112.039 93.7114 112.287 93.6956C113.422 93.6245 114.552 93.6693 115.685 93.6403C115.736 93.6445 115.788 93.628 115.827 93.5944C115.867 93.5608 115.891 93.5129 115.895 93.4612C115.9 93.4095 115.883 93.3582 115.849 93.3187C115.816 93.2792 115.768 93.2547 115.716 93.2505Z" fill="#353535"/>
<path d="M115.382 94.2329C114.149 93.9695 112.748 94.1038 111.489 94.1486C111.259 94.1486 111.225 94.5121 111.46 94.5042C112.139 94.4858 112.819 94.4779 113.496 94.4884C114.115 94.5327 114.737 94.5415 115.358 94.5148C115.495 94.499 115.524 94.2645 115.382 94.2329Z" fill="#353535"/>
<path d="M114.423 95.2865L111.449 95.1812C111.201 95.1812 111.17 95.5526 111.417 95.5631L114.391 95.679C114.647 95.708 114.678 95.2944 114.423 95.2865Z" fill="#353535"/>
<path d="M113.772 96.6115C112.405 96.406 110.914 96.5799 109.531 96.593C109.297 96.593 109.268 96.9592 109.502 96.9592C110.898 96.9592 112.4 97.1067 113.785 96.8828C113.818 96.8769 113.848 96.8593 113.868 96.8333C113.889 96.8072 113.9 96.7746 113.898 96.7414C113.896 96.7081 113.883 96.6767 113.86 96.6528C113.836 96.6289 113.805 96.6142 113.772 96.6115Z" fill="#353535"/>
<path d="M113.245 97.4913C112.674 97.1726 111.849 97.3701 111.217 97.4044C110.764 97.4281 110.314 97.4597 109.863 97.4913C109.486 97.4815 109.109 97.5241 108.744 97.6177C108.714 97.6317 108.69 97.6551 108.676 97.6842C108.661 97.7132 108.656 97.7464 108.662 97.7784L108.675 97.8285C108.682 97.8565 108.696 97.8819 108.718 97.9012C108.739 97.9205 108.765 97.9328 108.794 97.9365H108.836C108.859 97.9374 108.881 97.9318 108.901 97.9203C108.92 97.9088 108.936 97.8919 108.946 97.8716C108.957 97.8514 108.961 97.8286 108.959 97.806C108.956 97.7834 108.948 97.7619 108.933 97.7442C109.115 97.9602 109.634 97.8443 109.882 97.839C110.25 97.839 110.619 97.8232 110.991 97.8153C111.402 97.8153 112.081 97.6836 112.587 97.7547C112.574 97.8917 112.676 98.0471 112.837 98.005C112.945 97.9786 113.051 97.9496 113.156 97.9128C113.327 97.8653 113.448 97.6019 113.245 97.4913Z" fill="#353535"/>
<path d="M112.334 98.4C110.944 98.4153 109.556 98.5112 108.177 98.6872C108.054 98.703 108.088 98.8873 108.209 98.8742C109.571 98.7373 110.94 98.6924 112.308 98.7398C112.521 98.7477 112.545 98.3974 112.334 98.4Z" fill="#353535"/>
<path d="M111.344 99.675C109.744 99.6148 108.143 99.6747 106.552 99.8541C106.368 99.8725 106.423 100.146 106.602 100.131C108.065 100.011 109.534 99.9946 110.999 100.081C111.023 100.121 111.061 100.15 111.106 100.163C111.151 100.176 111.199 100.172 111.241 100.152L111.417 100.078C111.459 100.057 111.492 100.024 111.513 99.9825C111.533 99.9412 111.54 99.8943 111.532 99.8488C111.523 99.8034 111.501 99.7619 111.467 99.7306C111.433 99.6992 111.39 99.6797 111.344 99.675Z" fill="#353535"/>
<path d="M111.178 100.752C109.364 100.762 107.551 100.87 105.749 101.076C105.554 101.097 105.612 101.387 105.802 101.371C107.585 101.232 109.365 101.2 111.154 101.192C111.425 101.192 111.462 100.755 111.178 100.752Z" fill="#353535"/>
<path d="M109.963 101.766C108.133 101.76 106.304 101.865 104.487 102.083C104.282 102.104 104.342 102.409 104.542 102.393C106.339 102.251 108.13 102.238 109.929 102.209C110.206 102.193 110.248 101.766 109.963 101.766Z" fill="#353535"/>
<path d="M109.086 102.786C107.034 102.865 104.988 102.999 102.936 103.033C102.743 103.033 102.717 103.331 102.912 103.334C104.972 103.334 107.05 103.35 109.105 103.197C109.339 103.181 109.321 102.775 109.086 102.786Z" fill="#353535"/>
<path d="M108.249 104.327L101.584 104.174C101.371 104.174 101.345 104.498 101.558 104.506L108.214 104.769C108.494 104.769 108.528 104.332 108.249 104.327Z" fill="#353535"/>
<path d="M106.95 105.541C104.828 105.449 102.701 105.502 100.586 105.699C100.415 105.715 100.465 105.963 100.633 105.963C102.645 105.824 104.663 105.814 106.676 105.934C106.695 105.942 106.716 105.947 106.737 105.947H106.918C107.177 105.944 107.216 105.552 106.95 105.541Z" fill="#353535"/>
<path d="M106.028 106.734C103.685 106.854 101.336 106.805 99.0003 106.587C98.9523 106.588 98.9063 106.606 98.8713 106.639C98.8363 106.672 98.8149 106.717 98.8112 106.765C98.8076 106.813 98.822 106.86 98.8516 106.898C98.8813 106.936 98.924 106.961 98.9713 106.969C101.323 107.209 103.69 107.279 106.052 107.18C106.083 107.181 106.114 107.176 106.143 107.164C106.172 107.153 106.198 107.135 106.22 107.113C106.242 107.091 106.259 107.065 106.27 107.035C106.281 107.006 106.286 106.975 106.285 106.944C106.283 106.913 106.275 106.882 106.261 106.855C106.247 106.827 106.227 106.802 106.203 106.782C106.179 106.763 106.151 106.748 106.12 106.74C106.09 106.732 106.059 106.73 106.028 106.734Z" fill="#353535"/>
<path d="M104.922 107.688C102.463 107.625 99.9977 107.633 97.5252 107.712C97.3355 107.712 97.3065 108.012 97.5014 108.009C99.9599 107.971 102.418 108.001 104.877 108.101C105.156 108.115 105.188 107.696 104.922 107.688Z" fill="#353535"/>
<path d="M103.473 108.984C100.883 108.696 98.2699 108.666 95.6735 108.894C95.4864 108.91 95.5418 109.192 95.7261 109.181C98.3001 109.05 100.88 109.117 103.444 109.382C103.494 109.381 103.542 109.361 103.578 109.327C103.615 109.293 103.637 109.246 103.64 109.196C103.644 109.146 103.629 109.097 103.598 109.057C103.567 109.018 103.522 108.992 103.473 108.984Z" fill="#353535"/>
<path d="M102.306 109.932C99.5859 109.899 96.864 109.937 94.1404 110.048C93.9296 110.048 93.898 110.385 94.114 110.38C96.8306 110.31 99.5455 110.31 102.259 110.38C102.559 110.388 102.588 109.932 102.306 109.932Z" fill="#353535"/>
<path d="M102.464 110.609C99.3032 110.625 96.1423 110.817 92.9814 110.931C92.718 110.931 92.6864 111.347 92.9498 111.339C96.1107 111.244 99.3085 111.223 102.475 111.028C102.722 111.015 102.704 110.607 102.464 110.609Z" fill="#353535"/>
<path d="M101.534 111.286C98.7395 111.307 95.9421 111.457 93.1526 111.549C92.8892 111.549 92.8444 111.981 93.1184 111.974C95.929 111.881 98.7474 111.847 101.547 111.686C101.774 111.671 101.758 111.286 101.534 111.286Z" fill="#353535"/>
<path d="M101.395 111.918C98.7949 111.979 96.2082 112.182 93.6057 112.182C93.3238 112.182 93.287 112.619 93.5715 112.622C96.1687 112.622 98.8396 112.645 101.413 112.324C101.64 112.303 101.627 111.913 101.395 111.918Z" fill="#353535"/>
<path d="M99.8063 112.882C97.9783 112.898 96.1476 113.048 94.3221 113.146C94.0983 113.159 94.1167 113.551 94.3432 113.543C96.1687 113.464 98.0046 113.443 99.8248 113.293C99.8793 113.291 99.9306 113.267 99.9674 113.227C100.004 113.186 100.023 113.133 100.021 113.079C100.019 113.024 99.9946 112.973 99.9543 112.936C99.9141 112.899 99.8608 112.88 99.8063 112.882Z" fill="#353535"/>
<path d="M99.0609 113.825C97.2328 113.825 95.3968 113.931 93.5714 114.044C93.308 114.06 93.3739 114.486 93.6478 114.471C95.4416 114.36 97.2328 114.328 99.0266 114.249C99.2927 114.236 99.3374 113.828 99.0609 113.825Z" fill="#353535"/>
<path d="M97.8887 114.821C96.5717 114.789 95.2125 114.924 93.8875 114.984C93.6241 114.984 93.5873 115.408 93.8559 115.398C95.1993 115.35 96.5717 115.377 97.9098 115.234C98.1442 115.2 98.1232 114.829 97.8887 114.821Z" fill="#353535"/>
<path d="M96.5295 115.727L94.6857 116.062C94.6555 116.07 94.6297 116.09 94.6131 116.116C94.5965 116.143 94.5904 116.175 94.596 116.206C94.6016 116.236 94.6184 116.264 94.6433 116.283C94.6681 116.302 94.6992 116.312 94.7305 116.309L96.5743 116.006C96.6081 115.997 96.6373 115.975 96.6562 115.946C96.6752 115.917 96.6826 115.881 96.677 115.847C96.6715 115.812 96.6534 115.781 96.6262 115.759C96.5989 115.736 96.5645 115.725 96.5295 115.727Z" fill="#353535"/>
<path d="M25.9622 145.477C28.3081 142.376 30.8883 139.459 33.6801 136.752C34.0752 136.365 33.5247 135.699 33.1164 136.094C30.7792 138.304 28.594 140.67 26.5759 143.174C29.2841 133.342 34.7608 124.495 42.3541 117.687C42.4154 117.634 42.4617 117.565 42.4884 117.488C42.5152 117.412 42.5214 117.329 42.5065 117.25C42.4916 117.17 42.4561 117.095 42.4035 117.033C42.3509 116.971 42.283 116.924 42.2066 116.897C39.3486 115.524 35.2605 116.317 32.2814 116.92C29.5508 117.477 26.8974 118.361 24.3791 119.554C27.5848 115.901 30.8721 112.303 34.6389 109.218C39.0009 105.644 44.011 103.062 49.0131 100.526C49.324 100.368 49.3635 99.8119 48.971 99.7171C45.0606 98.7717 41.0415 98.3518 37.0201 98.4686C42.1203 95.3122 47.7468 93.0995 53.6307 91.936C53.7154 91.9145 53.7912 91.867 53.8476 91.8002C53.9039 91.7334 53.938 91.6506 53.945 91.5635C53.9519 91.4764 53.9315 91.3893 53.8865 91.3144C53.8414 91.2395 53.7741 91.1805 53.6939 91.1458C51.5375 90.1764 49.3802 89.2053 47.222 88.2325C50.3653 87.6838 53.5482 87.3922 56.7389 87.3606C56.8406 87.3664 56.9413 87.339 57.026 87.2825C57.1107 87.2259 57.1747 87.1434 57.2083 87.0473C57.2419 86.9512 57.2433 86.8468 57.2123 86.7498C57.1814 86.6528 57.1197 86.5686 57.0366 86.5098L55.2533 85.2744C57.0819 85.5821 58.7851 86.4044 60.1633 87.6451C60.3871 87.8374 60.6558 87.487 60.4952 87.2763C58.8251 85.0953 56.299 84.1154 53.5833 84.2181C53.1171 84.2366 52.822 84.8187 53.2646 85.1242C53.9389 85.5826 54.6185 86.033 55.2981 86.4834C52.0967 86.6202 48.9115 87.014 45.7732 87.6609C45.6873 87.681 45.6101 87.7278 45.5525 87.7947C45.495 87.8616 45.4602 87.945 45.4532 88.0329C45.4462 88.1208 45.4673 88.2087 45.5134 88.2839C45.5596 88.359 45.6284 88.4176 45.71 88.4511C47.8857 89.4257 50.0589 90.4047 52.2294 91.3881C46.144 92.7498 40.3579 95.2099 35.1552 98.6477C34.7548 98.9111 35.1552 99.4195 35.5108 99.3984C39.5413 99.1478 43.5872 99.4509 47.5354 100.299C42.8309 102.707 38.1686 105.212 34.0568 108.568C29.6236 112.182 25.8489 116.517 22.0927 120.8C21.7924 121.143 22.285 121.68 22.6669 121.472C25.5445 119.867 28.6378 118.683 31.852 117.958C34.6231 117.344 38.3819 116.531 41.2136 117.495C33.2082 124.861 27.6033 134.465 25.1272 145.058C25.095 145.165 25.1016 145.279 25.1458 145.382C25.19 145.484 25.2689 145.568 25.3687 145.618C25.4684 145.668 25.5827 145.681 25.6912 145.655C25.7998 145.63 25.8958 145.566 25.9622 145.477Z" fill="#353535"/>
<path d="M59.4704 134.016C61.9965 130.828 64.5964 127.636 66.6905 124.14C67.8988 122.087 68.7218 119.83 69.1191 117.481C69.4352 119.582 69.5498 121.707 69.4615 123.83C69.4457 124.222 69.9462 124.546 70.2518 124.235C73.4691 121.104 75.7207 117.115 76.7395 112.743C77.1452 113.409 77.5456 114.078 77.9539 114.742C78.1593 115.074 78.694 115.126 78.8336 114.697C79.1893 113.663 79.3839 112.58 79.4105 111.486C79.4105 110.541 78.6624 108.676 79.0944 107.925C79.3394 107.501 78.723 107.071 78.4596 107.496C77.996 108.238 78.2884 108.86 78.4148 109.692C78.5985 110.916 78.5376 112.164 78.2357 113.364C77.8116 112.65 77.3902 111.939 76.9634 111.228C76.9154 111.132 76.8376 111.055 76.7417 111.007C76.6458 110.959 76.5371 110.944 76.4317 110.963C76.3264 110.982 76.2301 111.035 76.1574 111.114C76.0846 111.193 76.0394 111.293 76.0283 111.399C75.2804 115.6 73.3454 119.5 70.452 122.636C70.4702 119.882 70.1554 117.136 69.5142 114.457C69.4905 114.344 69.4273 114.244 69.3359 114.173C69.2446 114.103 69.1311 114.067 69.0159 114.073C68.9007 114.079 68.7913 114.125 68.7073 114.204C68.6234 114.284 68.5705 114.39 68.558 114.505C68.1866 118.264 67.3253 121.411 65.2602 124.612C63.5743 127.227 61.6699 129.693 59.7444 132.135C60.1037 128.356 59.7915 124.544 58.8224 120.874C58.801 120.763 58.7401 120.663 58.6509 120.592C58.5617 120.522 58.4502 120.487 58.3368 120.492C58.2234 120.497 58.1158 120.544 58.0337 120.622C57.9516 120.7 57.9006 120.806 57.89 120.919C56.8969 126.917 53.0143 131.719 49.0737 136.136C49.4379 132.243 49.3495 128.321 48.8103 124.449C48.7974 124.38 48.769 124.315 48.7273 124.258C48.6855 124.202 48.6315 124.156 48.5692 124.124C48.507 124.091 48.4383 124.074 48.3682 124.072C48.2981 124.07 48.2286 124.085 48.1649 124.114C44.8907 125.779 42.0801 128.091 39.3275 130.496C36.3809 133.069 33.4649 135.679 30.5797 138.325C30.5126 138.382 30.4711 138.464 30.4642 138.552C30.4572 138.64 30.4855 138.727 30.5428 138.794C30.6001 138.861 30.6817 138.902 30.7696 138.909C30.8576 138.916 30.9446 138.888 31.0117 138.831C33.8319 136.458 36.6311 134.059 39.4092 131.634C42.1091 129.264 44.8222 126.951 47.9832 125.244C48.4919 129.304 48.4964 133.411 47.9963 137.471C47.9489 137.84 48.4836 138.164 48.7576 137.861C52.7087 133.468 56.7362 128.829 58.3483 123.084C59.0303 126.588 59.1131 130.181 58.5933 133.713C58.5301 134.218 59.2017 134.355 59.4704 134.016Z" fill="#353535"/>
<path d="M71.3634 108.786C71.9772 107.63 72.5725 106.468 73.1309 105.285C73.3337 104.861 72.6331 104.508 72.3934 104.914C71.7454 106.018 71.1448 107.88 70.2545 108.797C70.1649 109.41 69.9542 109.521 69.6144 109.123C69.4444 109.045 69.2944 108.928 69.1758 108.783C69.0572 108.638 68.973 108.468 68.9295 108.286C68.4027 107.54 68.005 106.663 67.5545 105.87C67.5163 105.793 67.4585 105.727 67.387 105.678C67.3155 105.63 67.2326 105.601 67.1465 105.595C67.0605 105.588 66.9741 105.604 66.896 105.641C66.8179 105.677 66.7508 105.734 66.7011 105.804C65.9825 106.856 65.4274 108.011 65.0548 109.229C64.7071 110.435 64.657 111.971 63.8009 112.943C63.6798 111.581 63.5612 110.217 63.4164 108.857C63.3163 107.899 63.1951 107.224 62.447 106.603C62.3384 106.532 62.2066 106.506 62.0793 106.531C61.9521 106.555 61.8393 106.628 61.7648 106.734C60.4741 108.315 59.215 109.921 57.9875 111.552C57.0261 112.84 56.1436 114.434 54.8845 115.503C55.4939 113.863 56.0611 112.207 56.5862 110.535C56.6152 110.443 56.6171 110.344 56.5917 110.251C56.5663 110.157 56.5146 110.073 56.4428 110.008C56.3709 109.943 56.282 109.9 56.1864 109.885C56.0909 109.869 55.9929 109.881 55.9039 109.919C53.5332 110.909 51.2073 111.968 48.8841 113.046C52.1097 109.952 55.6398 107.192 59.4204 104.809C59.509 104.762 59.5822 104.69 59.6316 104.603C59.6809 104.516 59.7044 104.416 59.6991 104.316C59.6939 104.216 59.6601 104.119 59.6019 104.038C59.5437 103.956 59.4634 103.893 59.3704 103.855C57.6159 103.157 55.7728 102.707 53.8941 102.517C56.7804 101.391 59.7513 100.495 62.7789 99.8382C62.873 99.818 62.9593 99.7709 63.0272 99.7027C63.0952 99.6345 63.1418 99.548 63.1616 99.4538C63.1814 99.3596 63.1735 99.2616 63.1387 99.1718C63.104 99.082 63.044 99.0042 62.9659 98.9479C60.902 97.3589 58.6918 95.9697 56.3649 94.7992C58.3826 94.4172 60.3529 94.4488 62.4523 94.6043C62.4935 94.607 62.5348 94.5989 62.572 94.581C62.6092 94.5631 62.6412 94.5358 62.6648 94.5019C62.6883 94.468 62.7028 94.4285 62.7066 94.3874C62.7105 94.3462 62.7036 94.3048 62.6867 94.2671L61.986 92.655H61.9702C62.0387 93.1002 62.31 93.7376 61.9228 93.9536C61.6094 94.1275 59.7155 93.6639 59.3177 93.656C57.8242 93.6372 56.3346 93.8143 54.8872 94.1828C54.7887 94.2043 54.6997 94.257 54.6335 94.3331C54.5673 94.4092 54.5274 94.5046 54.5197 94.6051C54.5121 94.7057 54.537 94.806 54.5908 94.8913C54.6447 94.9765 54.7246 95.0421 54.8187 95.0784C57.1741 96.2312 59.4243 97.5876 61.5435 99.1323C58.0447 99.9384 54.6258 101.059 51.3285 102.48C50.8728 102.675 50.9834 103.465 51.5076 103.46C53.7379 103.433 55.9568 103.782 58.0718 104.49C53.7426 107.311 49.7505 110.618 46.1736 114.347C45.7996 114.737 46.1736 115.44 46.7004 115.184C49.5505 113.846 52.4059 112.521 55.3007 111.278C54.7177 113.066 54.0882 114.838 53.4121 116.596C53.3829 116.688 53.3808 116.787 53.406 116.88C53.4313 116.973 53.4828 117.057 53.5544 117.122C53.6261 117.186 53.7148 117.229 53.8101 117.245C53.9054 117.26 54.0031 117.248 54.0917 117.21C55.8829 116.386 56.868 114.75 57.9954 113.209C59.3441 111.365 60.7454 109.563 62.181 107.788C62.6156 108.578 62.5313 109.935 62.6024 110.685L62.9106 113.983C62.9241 114.057 62.9544 114.127 62.9992 114.188C63.044 114.249 63.1021 114.298 63.169 114.333C63.2359 114.367 63.3098 114.386 63.3851 114.388C63.4605 114.389 63.5351 114.373 63.6034 114.342C64.657 113.73 65.147 112.848 65.4736 111.689C65.9372 110.048 66.2823 108.541 67.083 107.069C67.6098 108.078 68.1182 109.176 68.7978 110.016C69.0849 110.375 69.3431 110.704 69.8515 110.643C70.6917 110.548 71.0473 109.384 71.3634 108.786Z" fill="#353535"/>
<path fill-rule="evenodd" clip-rule="evenodd" d="M109.405 11.4805C109.225 11.491 109.052 11.6002 108.958 11.7623C108.44 12.6581 107.326 12.9634 106.272 12.4982C105.965 12.3625 105.835 12.3573 105.654 12.4735C105.492 12.5768 101.348 19.7367 101.177 20.2078C100.487 22.1076 101.339 25.1154 103.491 28.3762C104.036 29.2007 103.978 29.1676 104.964 29.2266C108.864 29.4601 111.895 28.6943 113.196 27.1467C113.518 26.7628 117.647 19.5941 117.655 19.4027C117.665 19.1876 117.596 19.078 117.325 18.8794C116.395 18.1992 116.102 17.0818 116.619 16.1856C116.713 16.0234 116.721 15.819 116.64 15.6577L116.575 15.528L113.062 13.5L109.55 11.472L109.405 11.4805ZM111.203 17.3221C111.239 17.3984 111.235 17.7461 111.188 18.5378C111.137 19.4139 111.135 19.6584 111.182 19.7022C111.215 19.7326 111.598 20.0366 112.035 20.3777C112.936 21.0822 112.989 21.141 112.974 21.419C112.956 21.7633 112.941 21.7708 111.676 22.0951L110.56 22.3811L110.187 23.4004C109.788 24.4903 109.745 24.5716 109.526 24.6491C109.176 24.7733 109.08 24.6846 108.381 23.5893C108.063 23.0912 107.788 22.6753 107.771 22.6651C107.753 22.6549 107.257 22.6248 106.669 22.5983C105.334 22.5381 105.292 22.5261 105.195 22.1711C105.123 21.913 105.154 21.8612 105.927 20.9387L106.622 20.1079L106.312 18.998C105.96 17.74 105.959 17.7237 106.248 17.5358C106.482 17.384 106.559 17.4005 107.62 17.8288C108.133 18.0362 108.589 18.2165 108.632 18.2296C108.694 18.2485 108.891 18.1329 109.602 17.6605C110.452 17.0955 110.625 17.0032 110.802 17.0226C110.922 17.0358 111.146 17.2035 111.203 17.3221Z" fill="#FD6BBA"/>
<path fill-rule="evenodd" clip-rule="evenodd" d="M44.1743 62.6342C43.8099 62.555 43.917 62.5021 41.5632 63.9235C40.4839 64.5752 39.5879 65.1112 39.5721 65.1145C39.5563 65.1179 38.6188 64.5737 37.4888 63.9053C35.2735 62.595 35.3469 62.6323 35.0292 62.6559C34.5932 62.6884 34.2153 63.1871 34.2833 63.6403C34.295 63.7183 34.5342 64.7814 34.8149 66.0026L35.3252 68.2231L35.2448 68.2996C35.2006 68.3416 34.4069 69.043 33.4811 69.8582C32.4777 70.7417 31.7596 71.3933 31.7032 71.4715C31.3852 71.9121 31.6056 72.5663 32.1384 72.7635C32.2051 72.7882 33.3079 72.8992 34.589 73.0101C35.8701 73.1211 36.9308 73.2209 36.9462 73.232C36.9616 73.2431 37.3905 74.2176 37.8995 75.3977C38.4084 76.5777 38.8541 77.5844 38.8898 77.6347C39.1125 77.9485 39.5877 78.072 39.9401 77.9076C40.2682 77.7545 40.2437 77.801 41.2646 75.3974C41.7684 74.2113 42.1885 73.2298 42.1982 73.2164C42.208 73.2029 43.2352 73.0952 44.4811 72.9769C45.7269 72.8587 46.8098 72.7509 46.8874 72.7374C47.4104 72.6467 47.7438 72.0405 47.5332 71.5632C47.4369 71.345 47.4566 71.3634 45.5559 69.7122C44.6049 68.886 43.8253 68.1974 43.8235 68.182C43.8218 68.1665 44.0558 67.1112 44.3437 65.8368C44.9149 63.3073 44.9099 63.3433 44.733 63.0486C44.6369 62.8886 44.3436 62.671 44.1743 62.6342Z" fill="#EDCE2D"/>
<g clip-path="url(#clip0_135_92)">
<path fill-rule="evenodd" clip-rule="evenodd" d="M130.343 108.803C129.979 108.724 130.086 108.671 127.732 110.092C126.653 110.744 125.757 111.28 125.741 111.283C125.725 111.287 124.788 110.743 123.658 110.074C121.442 108.764 121.516 108.801 121.198 108.825C120.762 108.857 120.384 109.356 120.452 109.809C120.464 109.887 120.703 110.95 120.984 112.171L121.494 114.392L121.414 114.468C121.369 114.51 120.576 115.212 119.65 116.027C118.646 116.911 117.928 117.562 117.872 117.64C117.554 118.081 117.774 118.735 118.307 118.932C118.374 118.957 119.477 119.068 120.758 119.179C122.039 119.29 123.1 119.39 123.115 119.401C123.13 119.412 123.559 120.386 124.068 121.566C124.577 122.747 125.023 123.753 125.059 123.804C125.281 124.117 125.756 124.241 126.109 124.076C126.437 123.923 126.412 123.97 127.433 121.566C127.937 120.38 128.357 119.399 128.367 119.385C128.377 119.372 129.404 119.264 130.65 119.146C131.896 119.027 132.979 118.92 133.056 118.906C133.579 118.816 133.913 118.209 133.702 117.732C133.606 117.514 133.625 117.532 131.725 115.881C130.774 115.055 129.994 114.366 129.992 114.351C129.991 114.335 130.225 113.28 130.512 112.006C131.084 109.476 131.079 109.512 130.902 109.217C130.806 109.057 130.512 108.84 130.343 108.803Z" fill="#19EE6E"/>
</g>
<defs>
<clipPath id="clip0_135_92">
<rect width="16" height="16" fill="white" transform="translate(124.364 104) rotate(35.8195)"/>
</clipPath>
</defs>
</svg>
