<svg width="30" height="30" viewBox="0 0 30 30" fill="none" xmlns="http://www.w3.org/2000/svg">
<path d="M5.75 17.2854C5.74682 17.6184 5.83873 17.9454 6.01498 18.2281C6.19189 18.5118 6.44636 18.7389 6.74828 18.8825C7.05021 19.0261 7.38695 19.0802 7.71866 19.0384C8.04891 18.9968 8.36041 18.8618 8.61664 18.6495L14.9946 13.509L21.3798 18.834L21.3804 18.8345C21.7377 19.1314 22.1982 19.2743 22.6608 19.2317C23.1234 19.189 23.5501 18.9643 23.847 18.6071C24.144 18.2498 24.2868 17.7893 24.2442 17.3267C24.2015 16.8642 23.9769 16.4376 23.6198 16.1406C23.6197 16.1406 23.6197 16.1405 23.6196 16.1405L16.1201 9.89088L16.1201 9.89087L16.1175 9.88873C15.8044 9.63134 15.4116 9.49063 15.0063 9.49063C14.6018 9.49063 14.2099 9.6307 13.8972 9.88697C13.8964 9.88756 13.8957 9.88815 13.895 9.88873L6.39897 15.923L6.39751 15.9242C6.19447 16.0889 6.03092 16.297 5.91887 16.5332C5.80737 16.7683 5.74968 17.0252 5.75 17.2854ZM5.75 17.2854C5.75001 17.2841 5.75002 17.2829 5.75004 17.2816L6.25001 17.2875L5.75001 17.2892C5.75001 17.2879 5.75 17.2866 5.75 17.2854Z" fill="#F2765A" stroke="#F2765A"/>
</svg>
