<svg width="30" height="30" viewBox="0 0 30 30" fill="none" xmlns="http://www.w3.org/2000/svg">
<path d="M24.25 12.7146C24.2532 12.3816 24.1613 12.0546 23.985 11.7719C23.8081 11.4882 23.5536 11.2611 23.2517 11.1175C22.9498 10.9739 22.613 10.9198 22.2813 10.9616C21.9511 11.0032 21.6396 11.1382 21.3834 11.3505L15.0054 16.491L8.62023 11.166L8.61959 11.1655C8.26234 10.8686 7.80176 10.7257 7.33918 10.7683C6.8766 10.811 6.44991 11.0357 6.15297 11.3929C5.85604 11.7502 5.71318 12.2107 5.75583 12.6733C5.79847 13.1358 6.02305 13.5624 6.38019 13.8594C6.38026 13.8594 6.38032 13.8595 6.38039 13.8595L13.8799 20.1091L13.8799 20.1091L13.8825 20.1113C14.1956 20.3687 14.5884 20.5094 14.9937 20.5094C15.3982 20.5094 15.7901 20.3693 16.1028 20.113C16.1036 20.1124 16.1043 20.1119 16.105 20.1113L23.601 14.077L23.6025 14.0758C23.8055 13.9111 23.9691 13.703 24.0811 13.4668C24.1926 13.2317 24.2503 12.9748 24.25 12.7146ZM24.25 12.7146C24.25 12.7159 24.25 12.7171 24.25 12.7184L23.75 12.7125L24.25 12.7108C24.25 12.7121 24.25 12.7134 24.25 12.7146Z" fill="#F2765A" stroke="#F2765A"/>
</svg>
