<svg width="10" height="17" viewBox="0 0 10 17" fill="none" xmlns="http://www.w3.org/2000/svg">
<path d="M3.33814 1.05497L3.33932 1.05644L8.16788 7.05465C8.38737 7.32269 8.50732 7.65847 8.50732 8.00497C8.50732 8.35241 8.38671 8.68907 8.16609 8.95747L8.16396 8.96007L8.16395 8.96006L3.16436 14.9596L3.33814 1.05497ZM3.33814 1.05497C3.19696 0.880943 3.01858 0.740755 2.81611 0.644712C2.61477 0.549204 2.3947 0.499764 2.17188 0.499965C1.88664 0.497354 1.60654 0.576131 1.36445 0.727098C1.12128 0.878732 0.926642 1.09685 0.803558 1.35564C0.680474 1.61443 0.634099 1.90307 0.669918 2.18739C0.705551 2.47023 0.82104 2.73703 1.00281 2.95655L5.06329 7.99456L0.855843 13.0397L0.855317 13.0404M3.33814 1.05497L0.855317 13.0404M0.855317 13.0404C0.600815 13.3466 0.478374 13.7413 0.514928 14.1378C0.551483 14.5343 0.744039 14.9 1.05024 15.1545C1.35643 15.409 1.75119 15.5314 2.14767 15.4949C2.54393 15.4583 2.90946 15.266 3.16395 14.9601L0.855317 13.0404Z" fill="white" stroke="white"/>
</svg>
