<svg width="24" height="24" viewBox="0 0 24 24" fill="none" xmlns="http://www.w3.org/2000/svg">
<path fill-rule="evenodd" clip-rule="evenodd" d="M11.5807 0.024656C10.6349 0.159265 11.0854 -0.168318 5.4385 4.49063C0.749887 8.3589 0.597703 8.49466 0.331185 9.04528C-0.664932 11.1029 0.746174 13.422 2.99654 13.4257C4.09429 13.4276 4.07106 13.4428 8.33707 9.92257C10.3095 8.29496 11.9467 6.96535 11.9752 6.96802C12.0038 6.97063 13.6341 8.29805 15.5982 9.91784C19.9246 13.486 19.7506 13.3641 20.6714 13.47C23.3031 13.7726 24.9913 10.7041 23.3543 8.59351C23.0567 8.20981 13.8079 0.587396 13.347 0.345996C12.8087 0.0641114 12.1481 -0.056073 11.5807 0.024656ZM11.5807 10.5395C11.2319 10.5823 10.756 10.7473 10.4387 10.9355C10.2104 11.0709 1.22567 18.4548 0.8753 18.7949C-1.00116 20.6168 0.345739 23.938 2.96108 23.938C4.10346 23.938 4.03949 23.9797 8.35306 20.4201C11.5882 17.7504 11.965 17.453 12.0419 17.5081C12.089 17.5419 13.7413 18.9013 15.7136 20.5289C19.9651 24.0374 19.9102 24.0015 21.0323 23.9998C23.508 23.9961 24.8737 21.1232 23.3555 19.113C23.1825 18.884 14.4482 11.6172 13.6493 11.0375C13.1058 10.6433 12.3057 10.4506 11.5807 10.5395Z" fill="#37D346"/>
</svg>
