<svg width="20" height="20" viewBox="0 0 20 20" fill="none" xmlns="http://www.w3.org/2000/svg">
<path fill-rule="evenodd" clip-rule="evenodd" d="M9.99198 0.000128784C9.70947 -0.000701922 9.43209 0.0755769 9.18974 0.220745C8.41958 0.686046 7.05176 3.2091 6.38189 4.54483C6.29975 4.71132 6.1783 4.8553 6.02804 4.96432C5.87778 5.07335 5.70323 5.14414 5.51948 5.17058C4.03934 5.40323 1.21545 5.92469 0.533543 6.51433C0.321641 6.70045 0.163699 6.94014 0.076265 7.20827C-0.0112146 7.47659 -0.0236979 7.7637 0.0401642 8.03859C0.240725 8.91705 2.22226 10.9989 3.28122 12.0498C3.41325 12.1792 3.51153 12.3391 3.56748 12.5153C3.62342 12.6915 3.63531 12.8787 3.60212 13.0606C3.36546 14.5408 2.9884 17.3887 3.34139 18.215C3.45195 18.4746 3.63082 18.6994 3.85897 18.8653C4.08712 19.0313 4.35601 19.1324 4.63701 19.1577C5.53552 19.2379 8.12676 17.9984 9.45046 17.3165C9.6149 17.2298 9.79803 17.1844 9.98395 17.1844C10.1699 17.1844 10.353 17.2298 10.5174 17.3165C11.8492 17.9984 14.4404 19.2379 15.3309 19.1577C15.6153 19.1373 15.8886 19.0394 16.1213 18.8747C16.3539 18.7099 16.537 18.4845 16.6506 18.2231C17.0036 17.3967 16.6265 14.5488 16.3899 13.0687C16.357 12.8855 16.3698 12.697 16.4272 12.52C16.4845 12.343 16.5847 12.1829 16.7188 12.0538C17.7777 10.9989 19.7593 8.91705 19.9598 8.04261C20.0237 7.76771 20.0112 7.4806 19.9237 7.21229C19.8347 6.94179 19.6739 6.70056 19.4584 6.51433C18.7765 5.92469 15.9526 5.40323 14.4725 5.17058C14.2887 5.14414 14.1142 5.07335 13.9639 4.96432C13.8137 4.8553 13.6922 4.71132 13.6101 4.54483C12.9322 3.2091 11.5644 0.686046 10.8022 0.220745C10.5599 0.0755769 10.2825 -0.000701922 10 0.000128784H9.99198Z" fill="url(#paint0_radial_156_694)"/>
<path style="mix-blend-mode:screen" opacity="0.5" fill-rule="evenodd" clip-rule="evenodd" d="M9.02931 3.08068L8.84078 3.40158C8.47576 4.0153 8.13882 4.63703 7.82594 5.27883C7.62765 5.67426 7.33721 6.01624 6.97909 6.27592C6.62097 6.53561 6.20567 6.70541 5.76819 6.771C5.06757 6.88064 4.36828 7.01434 3.67033 7.17212L3.30932 7.25234C3.11729 7.29511 2.93973 7.38723 2.79417 7.5196C2.64862 7.65197 2.54011 7.82001 2.47936 8.00714C2.4186 8.19426 2.4077 8.394 2.44774 8.58662C2.48777 8.77925 2.57735 8.9581 2.70764 9.10552L2.95232 9.38229C3.42966 9.91177 3.92304 10.4252 4.42444 10.9266C4.74062 11.2346 4.97845 11.6138 5.11802 12.0325C5.25759 12.4512 5.29485 12.8973 5.22668 13.3333C5.11437 14.0353 5.0181 14.7413 4.94188 15.4472C4.94188 15.5435 4.92183 15.6719 4.90578 15.8163C4.88669 16.0123 4.91911 16.2099 4.99983 16.3896C5.08055 16.5692 5.20678 16.7247 5.36602 16.8405C5.52527 16.9564 5.71201 17.0287 5.90777 17.0503C6.10354 17.0719 6.30154 17.0419 6.48219 16.9635L6.82314 16.8111C7.47296 16.5263 8.11475 16.2134 8.74451 15.8925C9.13744 15.6889 9.57352 15.5826 10.0161 15.5826C10.4586 15.5826 10.8947 15.6889 11.2876 15.8925C11.9174 16.2134 12.5592 16.5263 13.209 16.8111L13.5499 16.9635C13.7306 17.0419 13.9286 17.0719 14.1244 17.0503C14.3201 17.0287 14.5069 16.9564 14.6661 16.8405C14.8254 16.7247 14.9516 16.5692 15.0323 16.3896C15.113 16.2099 15.1454 16.0123 15.1263 15.8163C15.1263 15.6719 15.0983 15.5435 15.0902 15.4472C15.014 14.7413 14.9178 14.0353 14.8055 13.3333C14.7373 12.8973 14.7745 12.4512 14.9141 12.0325C15.0537 11.6138 15.2915 11.2346 15.6077 10.9266C16.1091 10.4252 16.6025 9.91177 17.0798 9.38229L17.3245 9.10552C17.4548 8.9581 17.5444 8.77925 17.5844 8.58662C17.6244 8.394 17.6135 8.19426 17.5528 8.00714C17.492 7.82001 17.3835 7.65197 17.238 7.5196C17.0924 7.38723 16.9148 7.29511 16.7228 7.25234L16.3618 7.17212C15.6679 7.0237 14.9659 6.89534 14.2639 6.771C13.8265 6.70541 13.4112 6.53561 13.053 6.27592C12.6949 6.01624 12.4045 5.67426 12.2062 5.27883C11.8372 4.63703 11.5082 4.0153 11.1552 3.40158L10.9667 3.08068C10.866 2.91199 10.7233 2.77232 10.5524 2.67532C10.3816 2.57833 10.1885 2.52734 9.992 2.52734C9.79553 2.52734 9.60243 2.57833 9.43158 2.67532C9.26073 2.77232 9.11797 2.91199 9.01727 3.08068H9.02931Z" fill="url(#paint1_radial_156_694)"/>
<path style="mix-blend-mode:screen" fill-rule="evenodd" clip-rule="evenodd" d="M3.27717 15.6117C4.98598 12.9957 7.24963 10.7879 9.90748 9.14496C12.5653 7.50201 15.5522 6.46419 18.6562 6.10515C17.2927 5.68314 15.8977 5.37061 14.4845 5.17054C14.3007 5.1441 14.1262 5.07331 13.9759 4.96428C13.8257 4.85526 13.7042 4.71128 13.6221 4.54479C12.9442 3.20906 11.5764 0.686006 10.8142 0.220706C10.5716 0.076252 10.2944 0 10.012 0C9.72959 0 9.45242 0.076252 9.20976 0.220706C8.4396 0.686006 7.07178 3.20906 6.40191 4.54479C6.31977 4.71128 6.19832 4.85526 6.04806 4.96428C5.8978 5.07331 5.72325 5.1441 5.5395 5.17054C4.05936 5.40319 1.23547 5.92465 0.553563 6.5143C0.341661 6.70041 0.183718 6.9401 0.0962846 7.20823C0.00880504 7.47655 -0.0036784 7.76366 0.0601837 8.03856C0.260744 8.91701 2.24228 10.9988 3.30124 12.0498C3.42972 12.1811 3.52426 12.3418 3.57668 12.518C3.62909 12.6941 3.63781 12.8803 3.60208 13.0606C3.49779 13.7305 3.36141 14.6651 3.27717 15.6037V15.6117Z" fill="url(#paint2_radial_156_694)"/>
<g style="mix-blend-mode:multiply">
<path style="mix-blend-mode:multiply" fill-rule="evenodd" clip-rule="evenodd" d="M15.6237 19.0333C14.677 19.1697 11.9534 17.0678 10.5535 15.9086C10.4035 15.7616 10.2019 15.6792 9.99194 15.6792C9.78195 15.6792 9.58033 15.7616 9.43037 15.9086C8.03046 17.0718 5.30685 19.1697 4.3602 19.0333C4.04175 18.9717 3.7566 18.7963 3.55796 18.5399C3.51383 18.4838 3.4657 18.4236 3.42559 18.3634C3.53334 18.5661 3.68723 18.7406 3.87484 18.8729C4.10209 19.0407 4.3715 19.1421 4.65302 19.1657C5.55153 19.2459 8.14277 18.0064 9.46647 17.3245C9.63091 17.2378 9.81403 17.1924 9.99996 17.1924C10.1859 17.1924 10.369 17.2378 10.5335 17.3245C11.8652 18.0064 14.4564 19.2459 15.3469 19.1657C15.6284 19.1421 15.8978 19.0407 16.1251 18.8729C16.3127 18.7406 16.4666 18.5661 16.5743 18.3634C16.5342 18.4236 16.4861 18.4838 16.442 18.5399C16.2394 18.7997 15.9479 18.9754 15.6237 19.0333ZM6.76693 5.03819C7.30844 3.57811 8.39147 0.894606 9.19371 0.224734C8.42356 0.690034 7.05573 3.21309 6.38586 4.54882C6.30372 4.71531 6.18228 4.85929 6.03202 4.96831C5.88176 5.07734 5.70721 5.14813 5.52345 5.17457C4.04332 5.40722 1.21942 5.92868 0.537517 6.51832C1.44004 5.96879 4.32811 5.76823 5.88847 5.71608C6.0881 5.71175 6.2811 5.6436 6.43919 5.5216C6.59727 5.39961 6.71213 5.2302 6.76693 5.03819ZM13.217 5.03819C13.2775 5.22756 13.3969 5.39269 13.5578 5.50955C13.7187 5.62641 13.9126 5.68892 14.1115 5.688C15.6678 5.75218 18.5559 5.95274 19.4584 6.49024C18.7765 5.9006 15.9526 5.37914 14.4725 5.14649C14.2887 5.12005 14.1142 5.04926 13.9639 4.94023C13.8136 4.83121 13.6922 4.68723 13.6101 4.52074C12.9322 3.18501 11.5643 0.661956 10.8022 0.196655C11.5924 0.910651 12.6754 3.59415 13.217 5.03819ZM4.52867 12.7878C4.60631 12.6008 4.61463 12.3921 4.55212 12.1995C4.48962 12.0068 4.3604 11.8428 4.18772 11.7369C2.856 10.8063 0.44927 9.00527 0.0321045 8.03055C0.232665 8.909 2.2142 10.9908 3.27316 12.0418C3.40786 12.1712 3.5084 12.332 3.56579 12.5098C3.62319 12.6876 3.63566 12.8768 3.60208 13.0606C3.36542 14.5407 2.98837 17.3887 3.34135 18.215C3.1087 17.2002 3.99919 14.3281 4.52867 12.7878ZM19.9518 8.03857C19.5507 9.0133 17.1439 10.8143 15.7962 11.7449C15.6239 11.8493 15.4943 12.0114 15.4304 12.2024C15.3665 12.3934 15.3724 12.6008 15.4472 12.7878C15.9767 14.3281 16.8672 17.2002 16.6305 18.2311C16.9835 17.4047 16.6064 14.5568 16.3698 13.0767C16.3369 12.8935 16.3497 12.705 16.4071 12.528C16.4644 12.351 16.5646 12.1909 16.6987 12.0618C17.7697 10.9988 19.7512 8.91703 19.9518 8.03857Z" fill="url(#paint3_radial_156_694)"/>
</g>
<path style="mix-blend-mode:screen" fill-rule="evenodd" clip-rule="evenodd" d="M1.97753 6.24148C3.2607 6.06685 4.55344 5.97174 5.84835 5.95669C6.43398 5.95669 6.71477 5.88448 6.9755 5.29484C7.62932 3.80267 7.92214 2.59529 8.77252 1.0951C8.87251 0.898975 8.99794 0.7169 9.14556 0.553586C9.47047 0.224667 9.8756 0.381104 9.79939 0.86646C9.53465 2.63942 9.22178 4.40034 8.84472 6.14922C8.5519 7.501 7.76571 7.5371 6.56234 7.49298C5.10627 7.44083 3.12072 7.31649 1.67669 7.09186C0.409146 6.90734 1.02687 6.37385 1.97753 6.22544V6.24148Z" fill="url(#paint4_radial_156_694)"/>
<path fill-rule="evenodd" clip-rule="evenodd" d="M8.53986 2.71171C8.86477 2.82803 8.94098 3.44175 8.70833 4.09156C8.47568 4.74138 8.03044 5.16657 7.70553 5.03821C7.38062 4.90985 7.30441 4.30817 7.53706 3.66236C7.76971 3.01656 8.21897 2.58335 8.53986 2.69967V2.71171Z" fill="white"/>
<path fill-rule="evenodd" clip-rule="evenodd" d="M9.11758 1.11917C9.29808 1.20742 9.31012 1.56843 9.13763 1.92141C8.96515 2.2744 8.68437 2.50705 8.49985 2.42281C8.31534 2.33858 8.31132 1.97356 8.4798 1.62057C8.64827 1.26759 8.93707 1.02691 9.11758 1.11917Z" fill="white"/>
<path style="mix-blend-mode:screen" fill-rule="evenodd" clip-rule="evenodd" d="M15.3229 15.7722C15.7561 15.684 16.2014 16.0891 16.3177 16.6747C16.434 17.2604 16.1773 17.8059 15.7441 17.8781C15.3109 17.9503 14.8656 17.5572 14.7493 16.9716C14.633 16.3859 14.8897 15.8404 15.3229 15.7682V15.7722Z" fill="url(#paint5_radial_156_694)"/>
<path style="mix-blend-mode:screen" fill-rule="evenodd" clip-rule="evenodd" d="M17.3165 10.353C16.7308 10.8503 16.0891 11.2194 15.5195 11.6726C15.3676 11.7705 15.251 11.9144 15.1867 12.0833C15.1225 12.2522 15.114 12.4372 15.1625 12.6113C15.2467 12.9723 15.4112 13.3092 15.5195 13.6662C15.8845 14.8696 15.5636 14.9097 14.9098 13.955C14.625 13.5539 14.3682 13.1046 14.1075 12.6674C13.6101 11.793 13.7906 11.3277 14.633 10.8664C15.4095 10.4613 16.2186 10.1218 17.0517 9.85155C17.7698 9.60285 17.9944 9.78336 17.3365 10.3369L17.3165 10.353Z" fill="url(#paint6_radial_156_694)"/>
<defs>
<radialGradient id="paint0_radial_156_694" cx="0" cy="0" r="1" gradientUnits="userSpaceOnUse" gradientTransform="translate(5.73207 1.15536) scale(20.3168)">
<stop stop-color="#FCF800"/>
<stop offset="1" stop-color="#FC9700"/>
</radialGradient>
<radialGradient id="paint1_radial_156_694" cx="0" cy="0" r="1" gradientUnits="userSpaceOnUse" gradientTransform="translate(7.14003 6.58648) scale(13.5017)">
<stop stop-color="#FFF261"/>
<stop offset="0.11" stop-color="#FAEE5F"/>
<stop offset="0.23" stop-color="#EDE15A"/>
<stop offset="0.36" stop-color="#D6CB52"/>
<stop offset="0.5" stop-color="#B7AD46"/>
<stop offset="0.64" stop-color="#8E8736"/>
<stop offset="0.78" stop-color="#5C5823"/>
<stop offset="0.92" stop-color="#23210D"/>
<stop offset="1"/>
</radialGradient>
<radialGradient id="paint2_radial_156_694" cx="0" cy="0" r="1" gradientUnits="userSpaceOnUse" gradientTransform="translate(341.62 95.856) scale(830.799 695.971)">
<stop stop-color="#575001"/>
<stop offset="0.11" stop-color="#9F9623"/>
<stop offset="0.23" stop-color="#988D14"/>
<stop offset="0.36" stop-color="#D6CB52"/>
<stop offset="0.5" stop-color="#948700"/>
<stop offset="0.64" stop-color="#756C00"/>
<stop offset="0.78" stop-color="#8F881E"/>
<stop offset="0.92" stop-color="#EED903"/>
<stop offset="1"/>
</radialGradient>
<radialGradient id="paint3_radial_156_694" cx="0" cy="0" r="1" gradientUnits="userSpaceOnUse" gradientTransform="translate(11.4801 12.9563) scale(14.2077)">
<stop stop-color="#E89A51"/>
<stop offset="1" stop-color="white"/>
</radialGradient>
<radialGradient id="paint4_radial_156_694" cx="0" cy="0" r="1" gradientUnits="userSpaceOnUse" gradientTransform="translate(4.84554 0.489406) scale(8.96907)">
<stop stop-color="#FFFACF"/>
<stop offset="1"/>
</radialGradient>
<radialGradient id="paint5_radial_156_694" cx="0" cy="0" r="1" gradientUnits="userSpaceOnUse" gradientTransform="translate(17.6294 17.485) scale(4.5447)">
<stop stop-color="#FFF380"/>
<stop offset="1"/>
</radialGradient>
<radialGradient id="paint6_radial_156_694" cx="0" cy="0" r="1" gradientUnits="userSpaceOnUse" gradientTransform="translate(18.9651 13.8146) scale(6.83109)">
<stop/>
<stop offset="0.08" stop-color="#232112"/>
<stop offset="0.22" stop-color="#5C582E"/>
<stop offset="0.36" stop-color="#8E8747"/>
<stop offset="0.5" stop-color="#B7AE5C"/>
<stop offset="0.64" stop-color="#D6CC6C"/>
<stop offset="0.77" stop-color="#EDE277"/>
<stop offset="0.89" stop-color="#FAEF7E"/>
<stop offset="1" stop-color="#FFF380"/>
</radialGradient>
</defs>
</svg>
